<?xml version="1.0" encoding="UTF-8"?>
<svg id="Layer_1" data-name="Layer 1" xmlns="http://www.w3.org/2000/svg" width="414.22" height="800" xmlns:xlink="http://www.w3.org/1999/xlink" viewBox="0 0 414.22 800">
  <defs>
    <style>
      .cls-1 {
        fill: url(#linear-gradient);
      }

      .cls-2 {
        fill: #fff;
      }

      .cls-3 {
        fill: #a3ea2a;
      }

      .cls-4 {
        fill: #223654;
      }

      .cls-5 {
        fill: url(#linear-gradient-3);
      }

      .cls-6 {
        fill: url(#linear-gradient-4);
      }

      .cls-7 {
        fill: url(#linear-gradient-2);
      }

      .cls-8 {
        fill: url(#linear-gradient-6);
      }

      .cls-9 {
        fill: url(#linear-gradient-5);
      }
    </style>
    <linearGradient id="linear-gradient" x1="-893.98" y1="-2668.48" x2="-827.15" y2="-2668.48" gradientTransform="translate(-2461.37 941.8) rotate(90)" gradientUnits="userSpaceOnUse">
      <stop offset=".44" stop-color="#223654"/>
      <stop offset=".52" stop-color="#3a584b"/>
      <stop offset=".7" stop-color="#78af37"/>
      <stop offset=".81" stop-color="#a3ea2a"/>
    </linearGradient>
    <linearGradient id="linear-gradient-2" x1="-778.84" x2="-712.02" xlink:href="#linear-gradient"/>
    <linearGradient id="linear-gradient-3" x1="-639.79" x2="-572.96" xlink:href="#linear-gradient"/>
    <linearGradient id="linear-gradient-4" x1="-524.89" x2="-458.06" xlink:href="#linear-gradient"/>
    <linearGradient id="linear-gradient-5" x1="-409.08" x2="-342.25" xlink:href="#linear-gradient"/>
    <linearGradient id="linear-gradient-6" x1="-294.11" x2="-227.29" xlink:href="#linear-gradient"/>
  </defs>
  <g>
    <g id="arrow_styles_for_diagrams_etc" data-name="arrow styles for diagrams etc">
      <g id="arrow_styles_for_diagrams_etc-2" data-name="arrow styles for diagrams etc">
        <g id="arrow_styles_for_diagrams_etc-3" data-name="arrow styles for diagrams etc">
          <path class="cls-1" d="m206.37,116.31l-11.15-19.39c-.33-.57.08-1.29.75-1.29h5.75v-19.21c0-1.72,1.39-3.11,3.11-3.11h4.57c1.71,0,3.1,1.39,3.1,3.1v19.22h5.75c.66,0,1.07.72.75,1.29l-11.15,19.39c-.33.57-1.15.57-1.48,0Z"/>
        </g>
      </g>
    </g>
    <g id="arrow_styles_for_diagrams_etc-4" data-name="arrow styles for diagrams etc">
      <g id="arrow_styles_for_diagrams_etc-5" data-name="arrow styles for diagrams etc">
        <g id="arrow_styles_for_diagrams_etc-6" data-name="arrow styles for diagrams etc">
          <path class="cls-7" d="m206.37,231.45l-11.15-19.39c-.33-.57.08-1.29.75-1.29h5.75v-19.21c0-1.72,1.39-3.11,3.11-3.11h4.57c1.71,0,3.1,1.39,3.1,3.1v19.22h5.75c.66,0,1.07.72.75,1.29l-11.15,19.39c-.33.57-1.15.57-1.48,0Z"/>
        </g>
      </g>
    </g>
    <g id="arrow_styles_for_diagrams_etc-7" data-name="arrow styles for diagrams etc">
      <g id="arrow_styles_for_diagrams_etc-8" data-name="arrow styles for diagrams etc">
        <g id="arrow_styles_for_diagrams_etc-9" data-name="arrow styles for diagrams etc">
          <path class="cls-5" d="m206.37,370.5l-11.15-19.39c-.33-.57.08-1.29.75-1.29h5.75v-19.21c0-1.72,1.39-3.11,3.11-3.11h4.57c1.71,0,3.1,1.39,3.1,3.1v19.22h5.75c.66,0,1.07.72.75,1.29l-11.15,19.39c-.33.57-1.15.57-1.48,0Z"/>
        </g>
      </g>
    </g>
    <g id="arrow_styles_for_diagrams_etc-10" data-name="arrow styles for diagrams etc">
      <g id="arrow_styles_for_diagrams_etc-11" data-name="arrow styles for diagrams etc">
        <g id="arrow_styles_for_diagrams_etc-12" data-name="arrow styles for diagrams etc">
          <path class="cls-6" d="m206.37,485.4l-11.15-19.39c-.33-.57.08-1.29.75-1.29h5.75v-19.21c0-1.72,1.39-3.11,3.11-3.11h4.57c1.71,0,3.1,1.39,3.1,3.1v19.22h5.75c.66,0,1.07.72.75,1.29l-11.15,19.39c-.33.57-1.15.57-1.48,0Z"/>
        </g>
      </g>
    </g>
    <g id="arrow_styles_for_diagrams_etc-13" data-name="arrow styles for diagrams etc">
      <g id="arrow_styles_for_diagrams_etc-14" data-name="arrow styles for diagrams etc">
        <g id="arrow_styles_for_diagrams_etc-15" data-name="arrow styles for diagrams etc">
          <path class="cls-9" d="m206.37,601.21l-11.15-19.39c-.33-.57.08-1.29.75-1.29h5.75v-19.21c0-1.72,1.39-3.11,3.11-3.11h4.57c1.71,0,3.1,1.39,3.1,3.1v19.22h5.75c.66,0,1.07.72.75,1.29l-11.15,19.39c-.33.57-1.15.57-1.48,0Z"/>
        </g>
      </g>
    </g>
    <g id="arrow_styles_for_diagrams_etc-16" data-name="arrow styles for diagrams etc">
      <g id="arrow_styles_for_diagrams_etc-17" data-name="arrow styles for diagrams etc">
        <g id="arrow_styles_for_diagrams_etc-18" data-name="arrow styles for diagrams etc">
          <path class="cls-8" d="m206.37,716.18l-11.15-19.39c-.33-.57.08-1.29.75-1.29h5.75v-19.21c0-1.72,1.39-3.11,3.11-3.11h4.57c1.71,0,3.1,1.39,3.1,3.1v19.22h5.75c.66,0,1.07.72.75,1.29l-11.15,19.39c-.33.57-1.15.57-1.48,0Z"/>
        </g>
      </g>
    </g>
    <rect class="cls-4" x="111.9" y="8.78" width="190.42" height="67.82" rx="9.62" ry="9.62"/>
    <g>
      <path class="cls-3" d="m153.82,33.42c3.06,0,5.4.54,7.04,1.61,1.64,1.08,2.46,2.84,2.46,5.28s-.83,4.25-2.49,5.34c-1.66,1.09-4.02,1.64-7.1,1.64h-1.45v6.86h-4.62v-20.21c1.01-.2,2.07-.33,3.2-.41,1.12-.08,2.11-.12,2.96-.12Zm.3,3.94c-.34,0-.67,0-.99.03-.33.02-.61.04-.84.06v5.92h1.45c1.6,0,2.8-.22,3.61-.65.81-.43,1.21-1.24,1.21-2.43,0-.57-.1-1.05-.31-1.42-.21-.37-.5-.68-.89-.9-.38-.23-.85-.38-1.41-.47-.55-.09-1.16-.13-1.83-.13Z"/>
      <path class="cls-3" d="m172.64,54.46c-1.28-.02-2.32-.16-3.12-.41-.8-.26-1.43-.62-1.89-1.08-.46-.46-.78-1.03-.95-1.69-.17-.66-.25-1.41-.25-2.23v-17.13l4.41-.71v16.95c0,.4.03.75.09,1.07.06.32.17.58.34.8.17.22.41.39.72.53.32.14.74.23,1.27.27l-.62,3.64Z"/>
      <path class="cls-3" d="m181.81,38.19c1.3,0,2.39.15,3.25.44.87.3,1.56.72,2.09,1.27.52.55.89,1.22,1.11,2.01.22.79.33,1.67.33,2.63v9.17c-.63.14-1.51.3-2.63.49-1.12.19-2.49.28-4.08.28-1.01,0-1.92-.09-2.74-.27-.82-.18-1.52-.47-2.12-.87s-1.05-.93-1.36-1.58-.47-1.45-.47-2.4.18-1.68.55-2.31c.36-.63.85-1.13,1.46-1.51.61-.37,1.31-.65,2.1-.81.79-.17,1.61-.25,2.46-.25.57,0,1.08.02,1.52.07.44.05.8.11,1.08.19v-.41c0-.75-.23-1.35-.68-1.8-.45-.45-1.24-.68-2.37-.68-.75,0-1.49.05-2.22.16-.73.11-1.36.26-1.89.46l-.56-3.55c.26-.08.58-.16.96-.25s.8-.17,1.26-.24c.45-.07.93-.13,1.44-.18s1.01-.07,1.52-.07Zm.36,12.9c.43,0,.85,0,1.24-.03.39-.02.71-.05.95-.09v-3.34c-.18-.04-.44-.08-.8-.12-.36-.04-.68-.06-.98-.06-.41,0-.8.02-1.17.07-.37.05-.69.14-.96.28-.28.14-.49.33-.65.56-.16.24-.24.53-.24.89,0,.69.23,1.17.7,1.44.46.27,1.1.4,1.91.4Z"/>
      <path class="cls-3" d="m192.58,39.13c.75-.22,1.72-.42,2.9-.61,1.18-.19,2.43-.28,3.73-.28s2.42.17,3.3.52c.88.35,1.57.83,2.09,1.46.51.63.88,1.38,1.09,2.25.22.87.33,1.83.33,2.9v8.79h-4.41v-8.25c0-1.42-.19-2.43-.56-3.02-.38-.59-1.08-.89-2.1-.89-.32,0-.65.01-1.01.04-.36.03-.67.06-.95.1v12.01h-4.41v-15.03Z"/>
      <path class="cls-3" d="m210.01,39.13c.75-.22,1.72-.42,2.9-.61,1.18-.19,2.43-.28,3.73-.28s2.42.17,3.3.52c.88.35,1.57.83,2.09,1.46.51.63.88,1.38,1.09,2.25.22.87.33,1.83.33,2.9v8.79h-4.41v-8.25c0-1.42-.19-2.43-.56-3.02-.38-.59-1.08-.89-2.1-.89-.32,0-.65.01-1.01.04-.36.03-.67.06-.95.1v12.01h-4.41v-15.03Z"/>
      <path class="cls-3" d="m232.26,34.1c0,.81-.26,1.45-.78,1.91-.52.46-1.14.7-1.85.7s-1.33-.23-1.85-.7-.78-1.1-.78-1.91.26-1.44.78-1.91,1.14-.7,1.85-.7,1.33.23,1.85.7c.52.46.78,1.1.78,1.91Zm-.41,20.06h-4.41v-15.56h4.41v15.56Z"/>
      <path class="cls-3" d="m235.99,39.13c.75-.22,1.72-.42,2.9-.61,1.18-.19,2.43-.28,3.73-.28s2.42.17,3.3.52c.88.35,1.57.83,2.09,1.46.51.63.88,1.38,1.09,2.25.22.87.33,1.83.33,2.9v8.79h-4.41v-8.25c0-1.42-.19-2.43-.56-3.02-.38-.59-1.08-.89-2.1-.89-.32,0-.65.01-1.01.04-.36.03-.67.06-.95.1v12.01h-4.41v-15.03Z"/>
      <path class="cls-3" d="m266.85,52.21c0,2.54-.65,4.43-1.94,5.67-1.29,1.23-3.29,1.85-5.99,1.85-.95,0-1.89-.08-2.84-.25-.95-.17-1.83-.39-2.63-.67l.77-3.7c.69.28,1.42.49,2.17.65.76.16,1.62.24,2.59.24,1.26,0,2.15-.28,2.68-.83.52-.55.78-1.26.78-2.13v-.56c-.47.22-.96.38-1.46.49s-1.05.16-1.64.16c-2.15,0-3.8-.64-4.94-1.91-1.14-1.27-1.72-3.05-1.72-5.34,0-1.14.18-2.18.53-3.12.35-.94.87-1.74,1.55-2.41.68-.67,1.51-1.19,2.5-1.55.99-.37,2.1-.55,3.34-.55.53,0,1.08.02,1.64.07.56.05,1.12.11,1.67.19.55.08,1.08.17,1.58.28.5.11.95.22,1.35.34v13.08Zm-9.67-6.33c0,2.47,1,3.7,2.99,3.7.45,0,.88-.06,1.27-.18.39-.12.73-.26,1.01-.41v-7.04c-.22-.04-.47-.07-.77-.1-.3-.03-.64-.04-1.04-.04-1.17,0-2.03.38-2.6,1.15-.57.77-.86,1.75-.86,2.93Z"/>
    </g>
    <rect class="cls-4" x="17.61" y="123.54" width="379" height="67.82" rx="9.62" ry="9.62"/>
    <g>
      <path class="cls-3" d="m51.21,148.42h4.62v20.5h-4.62v-20.5Z"/>
      <path class="cls-3" d="m60.27,153.9c.75-.22,1.72-.42,2.9-.61,1.18-.19,2.43-.28,3.73-.28s2.42.17,3.3.52c.88.35,1.57.83,2.09,1.46.51.63.88,1.38,1.09,2.25.22.87.33,1.83.33,2.9v8.79h-4.41v-8.25c0-1.42-.19-2.43-.56-3.02-.38-.59-1.08-.89-2.1-.89-.32,0-.65.01-1.01.04-.36.03-.67.06-.95.1v12.01h-4.41v-15.03Z"/>
      <path class="cls-3" d="m84.44,145.97c.83,0,1.59.08,2.28.25s1.22.33,1.6.49l-.86,3.52c-.39-.18-.82-.31-1.29-.4-.46-.09-.89-.13-1.29-.13-.53,0-.98.07-1.35.22-.37.15-.65.35-.86.61-.21.26-.35.56-.44.92s-.13.74-.13,1.15v.77h5.44v3.67h-5.44v11.89h-4.41v-16.39c0-2.01.57-3.61,1.7-4.79,1.13-1.18,2.82-1.77,5.04-1.77Z"/>
      <path class="cls-3" d="m104.5,161.12c0,1.22-.18,2.34-.53,3.36-.36,1.02-.87,1.88-1.54,2.6-.67.72-1.48,1.28-2.41,1.67-.94.39-1.99.59-3.15.59s-2.19-.2-3.12-.59c-.94-.39-1.74-.95-2.41-1.67-.67-.72-1.19-1.59-1.57-2.6-.38-1.02-.56-2.13-.56-3.36s.19-2.34.58-3.34c.38-1.01.92-1.86,1.6-2.57.68-.71,1.49-1.26,2.43-1.66.94-.39,1.96-.59,3.06-.59s2.15.2,3.09.59c.94.4,1.74.95,2.41,1.66.67.71,1.19,1.57,1.57,2.57.37,1.01.56,2.12.56,3.34Zm-4.5,0c0-1.36-.27-2.43-.81-3.21-.54-.78-1.32-1.17-2.32-1.17s-1.79.39-2.34,1.17c-.55.78-.83,1.85-.83,3.21s.28,2.44.83,3.24c.55.8,1.33,1.2,2.34,1.2s1.78-.4,2.32-1.2c.54-.8.81-1.88.81-3.24Z"/>
      <path class="cls-3" d="m117.28,157.27c-.39-.1-.86-.2-1.39-.31-.53-.11-1.1-.16-1.72-.16-.28,0-.61.02-.99.07-.38.05-.68.1-.87.16v11.89h-4.41v-14.73c.79-.28,1.72-.54,2.8-.78s2.27-.37,3.59-.37c.24,0,.52.01.86.04.33.03.67.07,1.01.12.33.05.67.11,1.01.18.33.07.62.15.86.25l-.74,3.64Z"/>
      <path class="cls-3" d="m128.94,160.67c0-1.42-.18-2.43-.55-3.02s-.99-.89-1.88-.89c-.28,0-.56.01-.86.04s-.58.06-.86.1v12.01h-4.41v-15.03c.37-.1.81-.2,1.32-.31.5-.11,1.04-.21,1.6-.3.56-.09,1.14-.16,1.73-.21.59-.05,1.17-.07,1.75-.07,1.12,0,2.04.14,2.74.43.7.29,1.28.63,1.73,1.02.63-.45,1.36-.81,2.17-1.07.82-.26,1.57-.38,2.26-.38,1.24,0,2.26.17,3.06.52.8.35,1.43.83,1.91,1.46.47.63.8,1.38.98,2.25.18.87.27,1.83.27,2.9v8.79h-4.41v-8.25c0-1.42-.18-2.43-.55-3.02-.36-.59-.99-.89-1.88-.89-.24,0-.57.06-.99.18-.42.12-.77.27-1.05.44.14.45.23.93.27,1.44.04.5.06,1.04.06,1.61v8.49h-4.41v-8.25Z"/>
      <path class="cls-3" d="m151.49,152.95c1.3,0,2.39.15,3.25.44.87.3,1.56.72,2.09,1.27.52.55.89,1.22,1.11,2.01.22.79.33,1.67.33,2.63v9.17c-.63.14-1.51.3-2.63.49-1.12.19-2.49.28-4.08.28-1.01,0-1.92-.09-2.74-.27-.82-.18-1.52-.47-2.12-.87s-1.05-.93-1.36-1.58-.47-1.45-.47-2.4.18-1.68.55-2.31c.36-.63.85-1.13,1.46-1.51.61-.37,1.31-.65,2.1-.81.79-.17,1.61-.25,2.46-.25.57,0,1.08.02,1.52.07.44.05.8.11,1.08.19v-.41c0-.75-.23-1.35-.68-1.8-.45-.45-1.24-.68-2.37-.68-.75,0-1.49.05-2.22.16-.73.11-1.36.26-1.89.46l-.56-3.55c.26-.08.58-.16.96-.25s.8-.17,1.26-.24c.45-.07.93-.13,1.44-.18s1.01-.07,1.52-.07Zm.36,12.9c.43,0,.85,0,1.24-.03.39-.02.71-.05.95-.09v-3.34c-.18-.04-.44-.08-.8-.12-.36-.04-.68-.06-.98-.06-.41,0-.8.02-1.17.07-.37.05-.69.14-.96.28-.28.14-.49.33-.65.56-.16.24-.24.53-.24.89,0,.69.23,1.17.7,1.44.46.27,1.1.4,1.91.4Z"/>
      <path class="cls-3" d="m162.11,149.49l4.41-.71v4.59h5.3v3.67h-5.3v5.47c0,.93.16,1.67.49,2.22.33.55.98.83,1.97.83.47,0,.96-.04,1.46-.13.5-.09.96-.21,1.38-.37l.62,3.43c-.53.22-1.12.4-1.78.56-.65.16-1.45.24-2.4.24-1.2,0-2.2-.16-2.99-.49-.79-.33-1.42-.78-1.89-1.36-.47-.58-.8-1.29-.99-2.12-.19-.83-.28-1.75-.28-2.75v-13.08Z"/>
      <path class="cls-3" d="m180.22,148.87c0,.81-.26,1.45-.78,1.91-.52.46-1.14.7-1.85.7s-1.33-.23-1.85-.7-.78-1.1-.78-1.91.26-1.44.78-1.91,1.14-.7,1.85-.7,1.33.23,1.85.7c.52.46.78,1.1.78,1.91Zm-.41,20.06h-4.41v-15.56h4.41v15.56Z"/>
      <path class="cls-3" d="m198.5,161.12c0,1.22-.18,2.34-.53,3.36-.36,1.02-.87,1.88-1.54,2.6-.67.72-1.48,1.28-2.41,1.67-.94.39-1.99.59-3.15.59s-2.19-.2-3.12-.59c-.94-.39-1.74-.95-2.41-1.67-.67-.72-1.19-1.59-1.57-2.6-.38-1.02-.56-2.13-.56-3.36s.19-2.34.58-3.34c.38-1.01.92-1.86,1.6-2.57.68-.71,1.49-1.26,2.43-1.66.94-.39,1.96-.59,3.06-.59s2.15.2,3.09.59c.94.4,1.74.95,2.41,1.66.67.71,1.19,1.57,1.57,2.57.37,1.01.56,2.12.56,3.34Zm-4.5,0c0-1.36-.27-2.43-.81-3.21-.54-.78-1.32-1.17-2.32-1.17s-1.79.39-2.34,1.17c-.55.78-.83,1.85-.83,3.21s.28,2.44.83,3.24c.55.8,1.33,1.2,2.34,1.2s1.78-.4,2.32-1.2c.54-.8.81-1.88.81-3.24Z"/>
      <path class="cls-3" d="m201.9,153.9c.75-.22,1.72-.42,2.9-.61,1.18-.19,2.43-.28,3.73-.28s2.42.17,3.3.52c.88.35,1.57.83,2.09,1.46.51.63.88,1.38,1.09,2.25.22.87.33,1.83.33,2.9v8.79h-4.41v-8.25c0-1.42-.19-2.43-.56-3.02-.38-.59-1.08-.89-2.1-.89-.31,0-.65.01-1.01.04-.36.03-.67.06-.95.1v12.01h-4.41v-15.03Z"/>
      <path class="cls-3" d="m236.73,151.97c-2.15,0-3.7.6-4.66,1.79-.96,1.19-1.44,2.83-1.44,4.9,0,1.01.12,1.92.36,2.74.24.82.59,1.52,1.06,2.12.47.59,1.07,1.05,1.78,1.38.71.33,1.54.49,2.49.49.51,0,.95,0,1.32-.03.36-.02.68-.06.96-.12v-7.13h4.62v10.15c-.55.22-1.44.45-2.66.7-1.22.25-2.73.37-4.53.37-1.54,0-2.93-.24-4.19-.71-1.25-.47-2.32-1.16-3.21-2.07s-1.57-2.02-2.06-3.34c-.48-1.32-.72-2.83-.72-4.53s.27-3.23.8-4.56,1.26-2.44,2.19-3.36c.93-.92,2.02-1.61,3.27-2.09,1.25-.47,2.59-.71,4.01-.71.97,0,1.84.06,2.62.19.78.13,1.45.28,2.01.44.56.17,1.03.34,1.39.52.36.18.63.32.78.41l-1.33,3.7c-.63-.34-1.36-.63-2.17-.87-.82-.25-1.71-.37-2.68-.37Z"/>
      <path class="cls-3" d="m252.79,152.95c1.3,0,2.39.15,3.25.44.87.3,1.56.72,2.09,1.27.52.55.89,1.22,1.11,2.01.22.79.33,1.67.33,2.63v9.17c-.63.14-1.51.3-2.63.49-1.12.19-2.49.28-4.08.28-1.01,0-1.92-.09-2.74-.27-.82-.18-1.52-.47-2.12-.87s-1.05-.93-1.36-1.58-.47-1.45-.47-2.4.18-1.68.55-2.31c.36-.63.85-1.13,1.46-1.51.61-.37,1.31-.65,2.1-.81.79-.17,1.61-.25,2.46-.25.57,0,1.08.02,1.52.07.44.05.8.11,1.08.19v-.41c0-.75-.23-1.35-.68-1.8-.45-.45-1.24-.68-2.37-.68-.75,0-1.49.05-2.22.16-.73.11-1.36.26-1.89.46l-.56-3.55c.26-.08.58-.16.96-.25s.8-.17,1.26-.24c.45-.07.93-.13,1.44-.18s1.01-.07,1.52-.07Zm.36,12.9c.43,0,.85,0,1.24-.03.39-.02.71-.05.95-.09v-3.34c-.18-.04-.44-.08-.8-.12-.36-.04-.68-.06-.98-.06-.41,0-.8.02-1.17.07-.37.05-.69.14-.96.28-.28.14-.49.33-.65.56-.16.24-.24.53-.24.89,0,.69.23,1.17.7,1.44.46.27,1.1.4,1.91.4Z"/>
      <path class="cls-3" d="m263.42,149.49l4.41-.71v4.59h5.3v3.67h-5.3v5.47c0,.93.16,1.67.49,2.22.33.55.98.83,1.97.83.47,0,.96-.04,1.46-.13.5-.09.96-.21,1.38-.37l.62,3.43c-.53.22-1.12.4-1.78.56-.65.16-1.45.24-2.4.24-1.2,0-2.2-.16-2.99-.49-.79-.33-1.42-.78-1.89-1.36-.47-.58-.8-1.29-.99-2.12-.19-.83-.28-1.75-.28-2.75v-13.08Z"/>
      <path class="cls-3" d="m276.7,168.93v-22.25l4.41-.71v7.46c.3-.1.68-.19,1.14-.28.46-.09.91-.13,1.35-.13,1.26,0,2.31.17,3.15.52.84.35,1.51.83,2.01,1.46.5.63.86,1.38,1.07,2.25.21.87.31,1.83.31,2.9v8.79h-4.41v-8.25c0-1.42-.18-2.43-.55-3.02s-1.04-.89-2.03-.89c-.4,0-.76.03-1.11.1-.35.07-.66.14-.93.22v11.83h-4.41Z"/>
      <path class="cls-3" d="m293.39,161.26c0-1.38.21-2.59.64-3.62.42-1.04.98-1.9,1.67-2.59.69-.69,1.48-1.21,2.38-1.57.9-.35,1.82-.53,2.77-.53,2.21,0,3.96.68,5.24,2.03,1.28,1.35,1.92,3.34,1.92,5.96,0,.26-.01.54-.03.84-.02.31-.04.58-.06.81h-10c.1.91.52,1.63,1.27,2.16.75.53,1.75.8,3.02.8.81,0,1.6-.07,2.38-.22s1.42-.33,1.91-.55l.59,3.58c-.24.12-.55.24-.95.35-.4.12-.83.22-1.32.31-.48.09-1,.16-1.55.22-.55.06-1.11.09-1.66.09-1.4,0-2.62-.21-3.65-.62-1.04-.41-1.89-.98-2.57-1.7-.68-.72-1.18-1.57-1.51-2.56-.33-.99-.49-2.05-.49-3.2Zm10.36-1.69c-.02-.37-.08-.74-.19-1.09-.11-.35-.28-.67-.5-.95-.23-.28-.51-.5-.86-.68-.35-.18-.77-.27-1.29-.27s-.92.08-1.27.25c-.35.17-.65.39-.89.67-.24.28-.42.6-.55.96-.13.37-.22.74-.28,1.11h5.83Z"/>
      <path class="cls-3" d="m320.79,157.27c-.39-.1-.86-.2-1.39-.31-.53-.11-1.1-.16-1.72-.16-.28,0-.61.02-.99.07-.38.05-.68.1-.87.16v11.89h-4.41v-14.73c.79-.28,1.72-.54,2.8-.78s2.27-.37,3.59-.37c.24,0,.52.01.86.04.33.03.67.07,1.01.12.33.05.67.11,1.01.18.33.07.62.15.86.25l-.74,3.64Z"/>
      <path class="cls-3" d="m328.72,148.87c0,.81-.26,1.45-.78,1.91-.52.46-1.14.7-1.85.7s-1.33-.23-1.85-.7-.78-1.1-.78-1.91.26-1.44.78-1.91,1.14-.7,1.85-.7,1.33.23,1.85.7c.52.46.78,1.1.78,1.91Zm-.41,20.06h-4.41v-15.56h4.41v15.56Z"/>
      <path class="cls-3" d="m332.44,153.9c.75-.22,1.72-.42,2.9-.61,1.18-.19,2.43-.28,3.73-.28s2.42.17,3.3.52c.88.35,1.57.83,2.09,1.46.51.63.88,1.38,1.09,2.25.22.87.33,1.83.33,2.9v8.79h-4.41v-8.25c0-1.42-.19-2.43-.56-3.02-.38-.59-1.08-.89-2.1-.89-.32,0-.65.01-1.01.04-.36.03-.67.06-.95.1v12.01h-4.41v-15.03Z"/>
      <path class="cls-3" d="m363.3,166.98c0,2.54-.65,4.43-1.94,5.67-1.29,1.23-3.29,1.85-5.99,1.85-.95,0-1.89-.08-2.84-.25-.95-.17-1.83-.39-2.63-.67l.77-3.7c.69.28,1.42.49,2.17.65.76.16,1.62.24,2.59.24,1.26,0,2.15-.28,2.68-.83.52-.55.78-1.26.78-2.13v-.56c-.47.22-.96.38-1.46.49s-1.05.16-1.64.16c-2.15,0-3.8-.64-4.94-1.91-1.14-1.27-1.72-3.05-1.72-5.34,0-1.14.18-2.18.53-3.12.35-.94.87-1.74,1.55-2.41.68-.67,1.51-1.19,2.5-1.55.99-.37,2.1-.55,3.34-.55.53,0,1.08.02,1.64.07.56.05,1.12.11,1.67.19.55.08,1.08.17,1.58.28.5.11.95.22,1.35.34v13.08Zm-9.67-6.33c0,2.47,1,3.7,2.99,3.7.45,0,.88-.06,1.27-.18.39-.12.73-.26,1.01-.41v-7.04c-.22-.04-.47-.07-.77-.1-.3-.03-.64-.04-1.04-.04-1.17,0-2.03.38-2.6,1.15-.57.77-.86,1.75-.86,2.93Z"/>
    </g>
    <rect class="cls-4" x="17.61" y="238.67" width="379" height="91.96" rx="9.62" ry="9.62"/>
    <g>
      <path class="cls-3" d="m67.84,257.64c3.08,0,5.43.55,7.07,1.64,1.64,1.1,2.46,2.8,2.46,5.1,0,1.44-.33,2.61-.99,3.51-.66.9-1.61,1.6-2.85,2.12.41.51.85,1.1,1.3,1.76.45.66.9,1.35,1.35,2.07s.87,1.47,1.29,2.25c.41.78.8,1.54,1.15,2.29h-5.16c-.38-.67-.76-1.35-1.14-2.04-.39-.69-.78-1.36-1.19-2.01-.41-.65-.81-1.27-1.2-1.85-.4-.58-.79-1.11-1.19-1.58h-2.28v7.49h-4.62v-20.21c1.01-.2,2.05-.33,3.12-.41,1.07-.08,2.04-.12,2.88-.12Zm.27,3.94c-.34,0-.64,0-.9.03-.27.02-.52.04-.75.06v5.56h1.3c1.74,0,2.98-.22,3.73-.65.75-.43,1.12-1.17,1.12-2.22s-.38-1.72-1.14-2.15c-.76-.42-1.88-.64-3.36-.64Z"/>
      <path class="cls-3" d="m86.1,258.32c0,.81-.26,1.45-.78,1.91-.52.46-1.14.7-1.85.7s-1.33-.23-1.85-.7c-.52-.46-.78-1.1-.78-1.91s.26-1.44.78-1.91c.52-.46,1.14-.7,1.85-.7s1.33.23,1.85.7c.52.46.78,1.1.78,1.91Zm-.41,20.06h-4.41v-15.56h4.41v15.56Z"/>
      <path class="cls-3" d="m94.29,275.22c.81,0,1.38-.08,1.72-.24.33-.16.5-.46.5-.92,0-.35-.22-.67-.65-.93-.43-.27-1.09-.57-1.98-.9-.69-.26-1.32-.52-1.88-.8-.56-.28-1.04-.61-1.44-.99s-.7-.84-.92-1.38c-.22-.53-.33-1.17-.33-1.92,0-1.46.54-2.61,1.63-3.46s2.57-1.27,4.47-1.27c.95,0,1.85.08,2.72.25.87.17,1.56.35,2.07.55l-.77,3.43c-.51-.18-1.07-.34-1.67-.47-.6-.14-1.28-.21-2.03-.21-1.38,0-2.07.38-2.07,1.15,0,.18.03.34.09.47.06.14.18.27.36.4s.42.27.72.42c.31.15.7.31,1.17.49.97.36,1.77.71,2.4,1.06.63.35,1.13.72,1.49,1.13s.62.85.77,1.34c.15.49.22,1.06.22,1.71,0,1.54-.58,2.7-1.73,3.48-1.15.79-2.79,1.18-4.9,1.18-1.38,0-2.53-.12-3.45-.35s-1.55-.43-1.91-.59l.74-3.58c.75.3,1.52.53,2.31.7.79.17,1.57.25,2.34.25Z"/>
      <path class="cls-3" d="m108.58,268.41c.43-.47.88-.96,1.34-1.47.46-.51.91-1.01,1.34-1.52.43-.5.84-.98,1.23-1.43.38-.45.71-.84.99-1.18h5.24c-1.04,1.2-2.07,2.35-3.06,3.44-1,1.09-2.09,2.22-3.27,3.38.59.53,1.2,1.17,1.83,1.91.63.74,1.24,1.51,1.83,2.3s1.13,1.58,1.63,2.37c.49.79.91,1.51,1.24,2.16h-5.07c-.32-.51-.67-1.08-1.08-1.71-.4-.62-.83-1.25-1.29-1.87-.45-.62-.93-1.22-1.43-1.79-.5-.57-1-1.06-1.49-1.45v6.82h-4.41v-22.25l4.41-.71v12.99Z"/>
      <path class="cls-3" d="m142.46,278.38c-.23-.71-.47-1.44-.74-2.19-.26-.75-.52-1.5-.78-2.24h-8.01c-.26.75-.52,1.5-.78,2.25-.26.75-.5,1.48-.73,2.19h-4.79c.77-2.21,1.5-4.25,2.2-6.12.69-1.87,1.37-3.64,2.03-5.3s1.32-3.23,1.96-4.72c.64-1.49,1.31-2.94,2-4.36h4.38c.67,1.42,1.34,2.88,1.99,4.36.65,1.49,1.31,3.06,1.98,4.72s1.34,3.42,2.04,5.3,1.43,3.92,2.2,6.12h-4.94Zm-5.55-15.86c-.1.3-.25.7-.45,1.22-.2.51-.42,1.1-.68,1.78-.25.67-.54,1.41-.85,2.22-.31.81-.63,1.65-.95,2.54h5.86c-.31-.89-.62-1.74-.91-2.55s-.57-1.55-.84-2.22-.5-1.26-.7-1.78c-.2-.51-.36-.91-.48-1.2Z"/>
      <path class="cls-3" d="m154.5,275.22c.81,0,1.38-.08,1.72-.24.33-.16.5-.46.5-.92,0-.35-.22-.67-.65-.93-.43-.27-1.09-.57-1.98-.9-.69-.26-1.32-.52-1.88-.8-.56-.28-1.04-.61-1.44-.99s-.7-.84-.92-1.38c-.22-.53-.33-1.17-.33-1.92,0-1.46.54-2.61,1.63-3.46s2.57-1.27,4.47-1.27c.95,0,1.85.08,2.72.25.87.17,1.56.35,2.07.55l-.77,3.43c-.51-.18-1.07-.34-1.67-.47-.6-.14-1.28-.21-2.03-.21-1.38,0-2.07.38-2.07,1.15,0,.18.03.34.09.47.06.14.18.27.36.4s.42.27.72.42c.31.15.7.31,1.17.49.97.36,1.77.71,2.4,1.06.63.35,1.13.72,1.49,1.13s.62.85.77,1.34c.15.49.22,1.06.22,1.71,0,1.54-.58,2.7-1.73,3.48-1.15.79-2.79,1.18-4.9,1.18-1.38,0-2.53-.12-3.45-.35s-1.55-.43-1.91-.59l.74-3.58c.75.3,1.52.53,2.31.7.79.17,1.57.25,2.34.25Z"/>
      <path class="cls-3" d="m168.85,275.22c.81,0,1.38-.08,1.72-.24.33-.16.5-.46.5-.92,0-.35-.22-.67-.65-.93-.43-.27-1.09-.57-1.98-.9-.69-.26-1.32-.52-1.88-.8-.56-.28-1.04-.61-1.44-.99s-.7-.84-.92-1.38c-.22-.53-.33-1.17-.33-1.92,0-1.46.54-2.61,1.63-3.46s2.57-1.27,4.47-1.27c.95,0,1.85.08,2.72.25.87.17,1.56.35,2.07.55l-.77,3.43c-.51-.18-1.07-.34-1.67-.47-.6-.14-1.28-.21-2.03-.21-1.38,0-2.07.38-2.07,1.15,0,.18.03.34.09.47.06.14.18.27.36.4s.42.27.72.42c.31.15.7.31,1.17.49.97.36,1.77.71,2.4,1.06.63.35,1.13.72,1.49,1.13s.62.85.77,1.34c.15.49.22,1.06.22,1.71,0,1.54-.58,2.7-1.73,3.48-1.15.79-2.79,1.18-4.9,1.18-1.38,0-2.53-.12-3.45-.35s-1.55-.43-1.91-.59l.74-3.58c.75.3,1.52.53,2.31.7.79.17,1.57.25,2.34.25Z"/>
      <path class="cls-3" d="m177.99,270.72c0-1.38.21-2.59.64-3.62.42-1.04.98-1.9,1.67-2.59.69-.69,1.48-1.21,2.38-1.57.9-.35,1.82-.53,2.77-.53,2.21,0,3.96.68,5.24,2.03,1.28,1.35,1.92,3.34,1.92,5.96,0,.26-.01.54-.03.84-.02.31-.04.58-.06.81h-10c.1.91.52,1.63,1.27,2.16.75.53,1.75.8,3.02.8.81,0,1.6-.07,2.38-.22s1.42-.33,1.91-.55l.59,3.58c-.24.12-.55.24-.95.35-.4.12-.83.22-1.32.31-.48.09-1,.16-1.55.22-.55.06-1.11.09-1.66.09-1.4,0-2.62-.21-3.65-.62-1.04-.41-1.89-.98-2.57-1.7-.68-.72-1.18-1.57-1.51-2.56-.33-.99-.49-2.05-.49-3.2Zm10.36-1.69c-.02-.37-.08-.74-.19-1.09-.11-.35-.28-.67-.5-.95-.23-.28-.51-.5-.86-.68-.35-.18-.77-.27-1.29-.27s-.92.08-1.27.25c-.35.17-.65.39-.89.67-.24.28-.42.6-.55.96-.13.37-.22.74-.28,1.11h5.83Z"/>
      <path class="cls-3" d="m200.48,275.22c.81,0,1.38-.08,1.72-.24.33-.16.5-.46.5-.92,0-.35-.22-.67-.65-.93-.43-.27-1.09-.57-1.98-.9-.69-.26-1.32-.52-1.88-.8-.56-.28-1.04-.61-1.44-.99s-.7-.84-.92-1.38c-.22-.53-.33-1.17-.33-1.92,0-1.46.54-2.61,1.63-3.46s2.57-1.27,4.47-1.27c.95,0,1.85.08,2.72.25.87.17,1.56.35,2.07.55l-.77,3.43c-.51-.18-1.07-.34-1.67-.47-.6-.14-1.28-.21-2.03-.21-1.38,0-2.07.38-2.07,1.15,0,.18.03.34.09.47.06.14.18.27.36.4s.42.27.72.42c.31.15.7.31,1.17.49.97.36,1.77.71,2.4,1.06.63.35,1.13.72,1.49,1.13s.62.85.77,1.34c.15.49.22,1.06.22,1.71,0,1.54-.58,2.7-1.73,3.48-1.15.79-2.79,1.18-4.9,1.18-1.38,0-2.53-.12-3.45-.35s-1.55-.43-1.91-.59l.74-3.58c.75.3,1.52.53,2.31.7.79.17,1.57.25,2.34.25Z"/>
      <path class="cls-3" d="m214.83,275.22c.81,0,1.38-.08,1.72-.24.33-.16.5-.46.5-.92,0-.35-.22-.67-.65-.93-.43-.27-1.09-.57-1.98-.9-.69-.26-1.32-.52-1.88-.8-.56-.28-1.04-.61-1.44-.99s-.7-.84-.92-1.38c-.22-.53-.33-1.17-.33-1.92,0-1.46.54-2.61,1.63-3.46s2.57-1.27,4.47-1.27c.95,0,1.85.08,2.72.25.87.17,1.56.35,2.07.55l-.77,3.43c-.51-.18-1.07-.34-1.67-.47-.6-.14-1.28-.21-2.03-.21-1.38,0-2.07.38-2.07,1.15,0,.18.03.34.09.47.06.14.18.27.36.4s.42.27.72.42c.31.15.7.31,1.17.49.97.36,1.77.71,2.4,1.06.63.35,1.13.72,1.49,1.13s.62.85.77,1.34c.15.49.22,1.06.22,1.71,0,1.54-.58,2.7-1.73,3.48-1.15.79-2.79,1.18-4.9,1.18-1.38,0-2.53-.12-3.45-.35s-1.55-.43-1.91-.59l.74-3.58c.75.3,1.52.53,2.31.7.79.17,1.57.25,2.34.25Z"/>
      <path class="cls-3" d="m233.26,270.13c0-1.42-.18-2.43-.55-3.02s-.99-.89-1.88-.89c-.28,0-.56.01-.86.04s-.58.06-.86.1v12.01h-4.41v-15.03c.37-.1.81-.2,1.32-.31.5-.11,1.04-.21,1.6-.3.56-.09,1.14-.16,1.73-.21.59-.05,1.17-.07,1.75-.07,1.12,0,2.04.14,2.74.43.7.29,1.28.63,1.73,1.02.63-.45,1.36-.81,2.17-1.07.82-.26,1.57-.38,2.26-.38,1.24,0,2.26.17,3.06.52.8.35,1.43.83,1.91,1.46.47.63.8,1.38.98,2.25.18.87.27,1.83.27,2.9v8.79h-4.41v-8.25c0-1.42-.18-2.43-.55-3.02-.36-.59-.99-.89-1.88-.89-.24,0-.57.06-.99.18-.42.12-.77.27-1.05.44.14.45.23.93.27,1.44.04.5.06,1.04.06,1.61v8.49h-4.41v-8.25Z"/>
      <path class="cls-3" d="m249.48,270.72c0-1.38.21-2.59.64-3.62.42-1.04.98-1.9,1.67-2.59.69-.69,1.48-1.21,2.38-1.57.9-.35,1.82-.53,2.77-.53,2.21,0,3.96.68,5.24,2.03,1.28,1.35,1.92,3.34,1.92,5.96,0,.26-.01.54-.03.84-.02.31-.04.58-.06.81h-10c.1.91.52,1.63,1.27,2.16.75.53,1.75.8,3.02.8.81,0,1.6-.07,2.38-.22s1.42-.33,1.91-.55l.59,3.58c-.24.12-.55.24-.95.35-.4.12-.83.22-1.32.31-.48.09-1,.16-1.55.22-.55.06-1.11.09-1.66.09-1.4,0-2.62-.21-3.65-.62-1.04-.41-1.89-.98-2.57-1.7-.68-.72-1.18-1.57-1.51-2.56-.33-.99-.49-2.05-.49-3.2Zm10.36-1.69c-.02-.37-.08-.74-.19-1.09-.11-.35-.28-.67-.5-.95-.23-.28-.51-.5-.86-.68-.35-.18-.77-.27-1.29-.27s-.92.08-1.27.25c-.35.17-.65.39-.89.67-.24.28-.42.6-.55.96-.13.37-.22.74-.28,1.11h5.83Z"/>
      <path class="cls-3" d="m267.5,263.35c.75-.22,1.72-.42,2.9-.61,1.18-.19,2.43-.28,3.73-.28s2.42.17,3.3.52c.88.35,1.57.83,2.09,1.46.51.63.88,1.38,1.09,2.25.22.87.33,1.83.33,2.9v8.79h-4.41v-8.25c0-1.42-.19-2.43-.56-3.02-.38-.59-1.08-.89-2.1-.89-.32,0-.65.01-1.01.04-.36.03-.67.06-.95.1v12.01h-4.41v-15.03Z"/>
      <path class="cls-3" d="m284.77,258.94l4.41-.71v4.59h5.3v3.67h-5.3v5.47c0,.93.16,1.67.49,2.22.33.55.98.83,1.97.83.47,0,.96-.04,1.46-.13.5-.09.96-.21,1.38-.37l.62,3.43c-.53.22-1.12.4-1.78.56-.65.16-1.45.24-2.4.24-1.2,0-2.2-.16-2.99-.49-.79-.33-1.42-.78-1.89-1.36-.47-.58-.8-1.29-.99-2.12-.19-.83-.28-1.75-.28-2.75v-13.08Z"/>
      <path class="cls-3" d="m310.75,262.41c1.3,0,2.39.15,3.25.44.87.3,1.56.72,2.09,1.27.52.55.89,1.22,1.11,2.01.22.79.33,1.67.33,2.63v9.17c-.63.14-1.51.3-2.63.49-1.12.19-2.49.28-4.08.28-1.01,0-1.92-.09-2.74-.27-.82-.18-1.52-.47-2.12-.87s-1.05-.93-1.36-1.58-.47-1.45-.47-2.4.18-1.68.55-2.31c.36-.63.85-1.13,1.46-1.51.61-.37,1.31-.65,2.1-.81.79-.17,1.61-.25,2.46-.25.57,0,1.08.02,1.52.07.44.05.8.11,1.08.19v-.41c0-.75-.23-1.35-.68-1.8-.45-.45-1.24-.68-2.37-.68-.75,0-1.49.05-2.22.16-.73.11-1.36.26-1.89.46l-.56-3.55c.26-.08.58-.16.96-.25s.8-.17,1.26-.24c.45-.07.93-.13,1.44-.18s1.01-.07,1.52-.07Zm.36,12.9c.43,0,.85,0,1.24-.03.39-.02.71-.05.95-.09v-3.34c-.18-.04-.44-.08-.8-.12-.36-.04-.68-.06-.98-.06-.41,0-.8.02-1.17.07-.37.05-.69.14-.96.28-.28.14-.49.33-.65.56-.16.24-.24.53-.24.89,0,.69.23,1.17.7,1.44.46.27,1.1.4,1.91.4Z"/>
      <path class="cls-3" d="m321.52,263.35c.75-.22,1.72-.42,2.9-.61,1.18-.19,2.43-.28,3.73-.28s2.42.17,3.3.52c.88.35,1.57.83,2.09,1.46.51.63.88,1.38,1.09,2.25.22.87.33,1.83.33,2.9v8.79h-4.41v-8.25c0-1.42-.19-2.43-.56-3.02-.38-.59-1.08-.89-2.1-.89-.32,0-.65.01-1.01.04-.36.03-.67.06-.95.1v12.01h-4.41v-15.03Z"/>
      <path class="cls-3" d="m352.68,277.88c-.39.12-.85.23-1.36.34s-1.05.2-1.61.28c-.56.08-1.13.14-1.72.19-.58.05-1.14.07-1.67.07-1.28,0-2.43-.19-3.43-.56-1.01-.37-1.85-.91-2.54-1.61s-1.22-1.55-1.58-2.54c-.37-1-.55-2.12-.55-3.36s.16-2.4.47-3.42c.32-1.02.77-1.88,1.36-2.59s1.32-1.25,2.17-1.63c.86-.37,1.84-.56,2.94-.56.61,0,1.16.06,1.64.18.48.12.97.29,1.46.5v-7.04l4.41-.71v22.46Zm-9.97-7.4c0,1.36.31,2.46.92,3.28s1.52,1.24,2.72,1.24c.39,0,.76-.01,1.09-.04.34-.03.61-.06.83-.1v-8.02c-.28-.18-.64-.33-1.08-.44-.44-.12-.89-.18-1.35-.18-2.09,0-3.14,1.42-3.14,4.26Z"/>
      <path class="cls-3" d="m86.61,314.3c-3.33,0-5.87-.93-7.62-2.78-1.75-1.85-2.62-4.49-2.62-7.9,0-1.7.27-3.21.8-4.54s1.26-2.46,2.19-3.37c.93-.92,2.03-1.61,3.31-2.09,1.28-.47,2.67-.71,4.17-.71.87,0,1.66.06,2.37.19.71.13,1.33.28,1.86.44.53.17.98.34,1.33.52.36.18.61.32.77.41l-1.33,3.73c-.63-.33-1.37-.62-2.21-.86-.84-.24-1.79-.35-2.86-.35-.71,0-1.41.12-2.09.35-.68.24-1.28.62-1.8,1.14s-.94,1.2-1.26,2.03c-.32.83-.47,1.83-.47,3.02,0,.95.1,1.83.31,2.65.21.82.54,1.52,1.01,2.12.46.59,1.07,1.06,1.82,1.41s1.66.52,2.72.52c.67,0,1.27-.04,1.81-.12.53-.08,1.01-.17,1.42-.28.41-.11.78-.23,1.09-.37.31-.14.6-.27.86-.38l1.27,3.7c-.65.4-1.57.75-2.75,1.07s-2.55.47-4.11.47Z"/>
      <path class="cls-3" d="m110.34,306.08c0,1.22-.18,2.34-.53,3.36-.36,1.02-.87,1.88-1.54,2.6-.67.72-1.48,1.28-2.41,1.67-.94.39-1.99.59-3.15.59s-2.19-.2-3.12-.59c-.94-.39-1.74-.95-2.41-1.67-.67-.72-1.19-1.59-1.57-2.6-.38-1.02-.56-2.13-.56-3.36s.19-2.34.58-3.34c.38-1.01.92-1.86,1.6-2.57.68-.71,1.49-1.26,2.43-1.66.94-.39,1.96-.59,3.06-.59s2.15.2,3.09.59c.94.4,1.74.95,2.41,1.66.67.71,1.19,1.57,1.57,2.57.37,1.01.56,2.12.56,3.34Zm-4.5,0c0-1.36-.27-2.43-.81-3.21-.54-.78-1.32-1.17-2.32-1.17s-1.79.39-2.34,1.17c-.55.78-.83,1.85-.83,3.21s.28,2.44.83,3.24c.55.8,1.33,1.2,2.34,1.2s1.78-.4,2.32-1.2c.54-.8.81-1.88.81-3.24Z"/>
      <path class="cls-3" d="m113.75,298.86c.75-.22,1.72-.42,2.9-.61,1.18-.19,2.43-.28,3.73-.28s2.42.17,3.3.52c.88.35,1.57.83,2.09,1.46.51.63.88,1.38,1.09,2.25.22.87.33,1.83.33,2.9v8.79h-4.41v-8.25c0-1.42-.19-2.43-.56-3.02-.38-.59-1.08-.89-2.1-.89-.32,0-.65.01-1.01.04-.36.03-.67.06-.95.1v12.01h-4.41v-15.03Z"/>
      <path class="cls-3" d="m131.03,294.45l4.41-.71v4.59h5.3v3.67h-5.3v5.47c0,.93.16,1.67.49,2.22.33.55.98.83,1.97.83.47,0,.96-.04,1.46-.13.5-.09.96-.21,1.38-.37l.62,3.43c-.53.22-1.12.4-1.78.56-.65.16-1.45.24-2.4.24-1.2,0-2.2-.16-2.99-.49-.79-.33-1.42-.78-1.89-1.36-.47-.58-.8-1.29-.99-2.12-.19-.83-.28-1.75-.28-2.75v-13.08Z"/>
      <path class="cls-3" d="m153.69,302.23c-.39-.1-.86-.2-1.39-.31-.53-.11-1.1-.16-1.72-.16-.28,0-.61.02-.99.07-.38.05-.68.1-.87.16v11.89h-4.41v-14.73c.79-.28,1.72-.54,2.8-.78s2.27-.37,3.59-.37c.24,0,.52.01.86.04.33.03.67.07,1.01.12.33.05.67.11,1.01.18.33.07.62.15.86.25l-.74,3.64Z"/>
      <path class="cls-3" d="m171.06,306.08c0,1.22-.18,2.34-.53,3.36-.36,1.02-.87,1.88-1.54,2.6-.67.72-1.48,1.28-2.41,1.67-.94.39-1.99.59-3.15.59s-2.19-.2-3.12-.59c-.94-.39-1.74-.95-2.41-1.67-.67-.72-1.19-1.59-1.57-2.6-.38-1.02-.56-2.13-.56-3.36s.19-2.34.58-3.34c.38-1.01.92-1.86,1.6-2.57.68-.71,1.49-1.26,2.43-1.66.94-.39,1.96-.59,3.06-.59s2.15.2,3.09.59c.94.4,1.74.95,2.41,1.66.67.71,1.19,1.57,1.57,2.57.37,1.01.56,2.12.56,3.34Zm-4.5,0c0-1.36-.27-2.43-.81-3.21-.54-.78-1.32-1.17-2.32-1.17s-1.79.39-2.34,1.17c-.55.78-.83,1.85-.83,3.21s.28,2.44.83,3.24c.55.8,1.33,1.2,2.34,1.2s1.78-.4,2.32-1.2c.54-.8.81-1.88.81-3.24Z"/>
      <path class="cls-3" d="m180.67,314.19c-1.28-.02-2.32-.16-3.12-.41-.8-.26-1.43-.62-1.89-1.08-.46-.46-.78-1.03-.95-1.69-.17-.66-.25-1.41-.25-2.23v-17.13l4.41-.71v16.95c0,.4.03.75.09,1.07.06.32.17.58.34.8.17.22.41.39.72.53.32.14.74.23,1.27.27l-.62,3.64Z"/>
      <path class="cls-3" d="m191.21,313.89v-20.5h13.85v3.88h-9.23v4.02h8.2v3.79h-8.2v4.94h9.91v3.88h-14.53Z"/>
      <path class="cls-3" d="m213.09,313.89c-1.01-1.97-2.03-4.28-3.07-6.92-1.04-2.64-2.02-5.52-2.95-8.64h4.67c.2.77.43,1.6.7,2.5.27.9.54,1.8.83,2.72.29.92.57,1.81.86,2.68.29.87.57,1.66.85,2.37.26-.71.53-1.5.83-2.37.3-.87.59-1.76.88-2.68.29-.92.56-1.82.83-2.72.27-.9.5-1.73.7-2.5h4.56c-.93,3.12-1.91,6-2.95,8.64-1.04,2.64-2.06,4.95-3.07,6.92h-3.66Z"/>
      <path class="cls-3" d="m230.41,297.91c1.3,0,2.39.15,3.25.44.87.3,1.56.72,2.09,1.27.52.55.89,1.22,1.11,2.01.22.79.33,1.67.33,2.63v9.17c-.63.14-1.51.3-2.63.49-1.12.19-2.49.28-4.08.28-1.01,0-1.92-.09-2.74-.27-.82-.18-1.52-.47-2.12-.87s-1.05-.93-1.36-1.58-.47-1.45-.47-2.4.18-1.68.55-2.31c.36-.63.85-1.13,1.46-1.51.61-.37,1.31-.65,2.1-.81.79-.17,1.61-.25,2.46-.25.57,0,1.08.02,1.52.07.44.05.8.11,1.08.19v-.41c0-.75-.23-1.35-.68-1.8-.45-.45-1.24-.68-2.37-.68-.75,0-1.49.05-2.22.16-.73.11-1.36.26-1.89.46l-.56-3.55c.26-.08.58-.16.96-.25s.8-.17,1.26-.24c.45-.07.93-.13,1.44-.18s1.01-.07,1.52-.07Zm.36,12.9c.43,0,.85,0,1.24-.03.39-.02.71-.05.95-.09v-3.34c-.18-.04-.44-.08-.8-.12-.36-.04-.68-.06-.98-.06-.41,0-.8.02-1.17.07-.37.05-.69.14-.96.28-.28.14-.49.33-.65.56-.16.24-.24.53-.24.89,0,.69.23,1.17.7,1.44.46.27,1.1.4,1.91.4Z"/>
      <path class="cls-3" d="m247.39,314.19c-1.28-.02-2.32-.16-3.12-.41-.8-.26-1.43-.62-1.89-1.08-.46-.46-.78-1.03-.95-1.69-.17-.66-.25-1.41-.25-2.23v-17.13l4.41-.71v16.95c0,.4.03.75.09,1.07.06.32.17.58.34.8.17.22.41.39.72.53.32.14.74.23,1.27.27l-.62,3.64Z"/>
      <path class="cls-3" d="m263.81,313.36c-.75.22-1.72.42-2.9.61-1.18.19-2.43.28-3.73.28s-2.42-.18-3.3-.53c-.88-.35-1.57-.85-2.09-1.49-.51-.64-.88-1.41-1.09-2.29-.22-.89-.33-1.86-.33-2.93v-8.67h4.41v8.14c0,1.42.19,2.45.56,3.08.38.63,1.08.95,2.1.95.31,0,.65-.01,1.01-.04.35-.03.67-.06.95-.1v-12.01h4.41v15.03Z"/>
      <path class="cls-3" d="m273.55,297.91c1.3,0,2.39.15,3.25.44.87.3,1.56.72,2.09,1.27.52.55.89,1.22,1.11,2.01.22.79.33,1.67.33,2.63v9.17c-.63.14-1.51.3-2.63.49-1.12.19-2.49.28-4.08.28-1.01,0-1.92-.09-2.74-.27-.82-.18-1.52-.47-2.12-.87s-1.05-.93-1.36-1.58-.47-1.45-.47-2.4.18-1.68.55-2.31c.36-.63.85-1.13,1.46-1.51.61-.37,1.31-.65,2.1-.81.79-.17,1.61-.25,2.46-.25.57,0,1.08.02,1.52.07.44.05.8.11,1.08.19v-.41c0-.75-.23-1.35-.68-1.8-.45-.45-1.24-.68-2.37-.68-.75,0-1.49.05-2.22.16-.73.11-1.36.26-1.89.46l-.56-3.55c.26-.08.58-.16.96-.25s.8-.17,1.26-.24c.45-.07.93-.13,1.44-.18s1.01-.07,1.52-.07Zm.36,12.9c.43,0,.85,0,1.24-.03.39-.02.71-.05.95-.09v-3.34c-.18-.04-.44-.08-.8-.12-.36-.04-.68-.06-.98-.06-.41,0-.8.02-1.17.07-.37.05-.69.14-.96.28-.28.14-.49.33-.65.56-.16.24-.24.53-.24.89,0,.69.23,1.17.7,1.44.46.27,1.1.4,1.91.4Z"/>
      <path class="cls-3" d="m284.17,294.45l4.41-.71v4.59h5.3v3.67h-5.3v5.47c0,.93.16,1.67.49,2.22.33.55.98.83,1.97.83.47,0,.96-.04,1.46-.13.5-.09.96-.21,1.38-.37l.62,3.43c-.53.22-1.12.4-1.78.56-.65.16-1.45.24-2.4.24-1.2,0-2.2-.16-2.99-.49-.79-.33-1.42-.78-1.89-1.36-.47-.58-.8-1.29-.99-2.12-.19-.83-.28-1.75-.28-2.75v-13.08Z"/>
      <path class="cls-3" d="m302.28,293.83c0,.81-.26,1.45-.78,1.91-.52.46-1.14.7-1.85.7s-1.33-.23-1.85-.7-.78-1.1-.78-1.91.26-1.44.78-1.91,1.14-.7,1.85-.7,1.33.23,1.85.7c.52.46.78,1.1.78,1.91Zm-.41,20.06h-4.41v-15.56h4.41v15.56Z"/>
      <path class="cls-3" d="m320.56,306.08c0,1.22-.18,2.34-.53,3.36-.36,1.02-.87,1.88-1.54,2.6-.67.72-1.48,1.28-2.41,1.67-.94.39-1.99.59-3.15.59s-2.19-.2-3.12-.59c-.94-.39-1.74-.95-2.41-1.67-.67-.72-1.19-1.59-1.57-2.6-.38-1.02-.56-2.13-.56-3.36s.19-2.34.58-3.34c.38-1.01.92-1.86,1.6-2.57.68-.71,1.49-1.26,2.43-1.66.94-.39,1.96-.59,3.06-.59s2.15.2,3.09.59c.94.4,1.74.95,2.41,1.66.67.71,1.19,1.57,1.57,2.57.37,1.01.56,2.12.56,3.34Zm-4.5,0c0-1.36-.27-2.43-.81-3.21-.54-.78-1.32-1.17-2.32-1.17s-1.79.39-2.34,1.17c-.55.78-.83,1.85-.83,3.21s.28,2.44.83,3.24c.55.8,1.33,1.2,2.34,1.2s1.78-.4,2.32-1.2c.54-.8.81-1.88.81-3.24Z"/>
      <path class="cls-3" d="m323.97,298.86c.75-.22,1.72-.42,2.9-.61,1.18-.19,2.43-.28,3.73-.28s2.42.17,3.3.52c.88.35,1.57.83,2.09,1.46.51.63.88,1.38,1.09,2.25.22.87.33,1.83.33,2.9v8.79h-4.41v-8.25c0-1.42-.19-2.43-.56-3.02-.38-.59-1.08-.89-2.1-.89-.32,0-.65.01-1.01.04-.36.03-.67.06-.95.1v12.01h-4.41v-15.03Z"/>
    </g>
    <rect class="cls-4" x="111.9" y="377.73" width="190.42" height="67.82" rx="9.62" ry="9.62"/>
    <g>
      <path class="cls-3" d="m172.55,402.61v3.93h-6.18v16.57h-4.62v-16.57h-6.18v-3.93h16.98Z"/>
      <path class="cls-3" d="m172.26,415.45c0-1.38.21-2.59.64-3.62.42-1.04.98-1.9,1.67-2.59s1.48-1.21,2.38-1.57c.9-.36,1.82-.53,2.77-.53,2.21,0,3.96.68,5.24,2.03,1.28,1.35,1.92,3.34,1.92,5.96,0,.26-.01.54-.03.84s-.04.58-.06.81h-10c.1.91.52,1.63,1.27,2.16.75.53,1.75.8,3.02.8.81,0,1.6-.07,2.38-.22.78-.15,1.42-.33,1.91-.55l.59,3.58c-.24.12-.55.24-.95.36-.4.12-.83.22-1.32.31-.48.09-1,.16-1.55.22-.55.06-1.11.09-1.66.09-1.4,0-2.62-.21-3.65-.62-1.04-.41-1.89-.98-2.57-1.7-.68-.72-1.18-1.57-1.51-2.56-.33-.99-.49-2.05-.49-3.2Zm10.36-1.69c-.02-.38-.08-.74-.19-1.09-.11-.36-.28-.67-.5-.95-.23-.28-.51-.5-.86-.68-.35-.18-.77-.27-1.29-.27s-.92.08-1.27.25c-.35.17-.65.39-.89.67-.24.28-.42.6-.55.96-.13.37-.22.73-.28,1.11h5.83Z"/>
      <path class="cls-3" d="m194.74,419.95c.81,0,1.38-.08,1.72-.24.33-.16.5-.46.5-.92,0-.36-.22-.67-.65-.93-.43-.27-1.09-.57-1.98-.9-.69-.26-1.32-.52-1.88-.8-.56-.28-1.04-.61-1.44-.99s-.7-.84-.92-1.38c-.22-.53-.33-1.17-.33-1.92,0-1.46.54-2.61,1.63-3.46,1.08-.85,2.57-1.27,4.47-1.27.95,0,1.85.08,2.72.25.87.17,1.56.35,2.07.55l-.77,3.43c-.51-.18-1.07-.33-1.67-.47-.6-.14-1.28-.21-2.03-.21-1.38,0-2.07.38-2.07,1.15,0,.18.03.33.09.47.06.14.18.27.36.4.18.13.42.27.72.42.31.15.7.31,1.17.49.97.36,1.77.71,2.4,1.06s1.13.72,1.49,1.13.62.85.77,1.34c.15.49.22,1.06.22,1.71,0,1.54-.58,2.7-1.73,3.48-1.15.79-2.79,1.18-4.9,1.18-1.38,0-2.53-.12-3.45-.35-.92-.24-1.55-.43-1.91-.59l.74-3.58c.75.3,1.52.53,2.31.7.79.17,1.57.25,2.34.25Z"/>
      <path class="cls-3" d="m204.48,403.68l4.41-.71v4.59h5.3v3.67h-5.3v5.47c0,.93.16,1.67.49,2.22.33.55.98.83,1.97.83.47,0,.96-.04,1.46-.13s.96-.21,1.38-.37l.62,3.43c-.53.22-1.12.4-1.78.56-.65.16-1.45.24-2.4.24-1.2,0-2.2-.16-2.99-.49-.79-.33-1.42-.78-1.89-1.36s-.8-1.29-.99-2.12c-.19-.83-.28-1.75-.28-2.75v-13.08Z"/>
      <path class="cls-3" d="m222.58,403.06c0,.81-.26,1.45-.78,1.91-.52.46-1.14.7-1.85.7s-1.33-.23-1.85-.7c-.52-.46-.78-1.1-.78-1.91s.26-1.44.78-1.91,1.14-.7,1.85-.7,1.33.23,1.85.7c.52.46.78,1.1.78,1.91Zm-.41,20.06h-4.41v-15.56h4.41v15.56Z"/>
      <path class="cls-3" d="m226.31,408.09c.75-.22,1.72-.42,2.9-.61s2.43-.28,3.73-.28,2.42.17,3.3.52c.88.35,1.57.83,2.09,1.46.51.63.88,1.38,1.09,2.25.22.87.33,1.83.33,2.9v8.79h-4.41v-8.25c0-1.42-.19-2.43-.56-3.02-.38-.59-1.08-.89-2.1-.89-.32,0-.65.01-1.01.04-.36.03-.67.06-.95.1v12.01h-4.41v-15.03Z"/>
      <path class="cls-3" d="m257.17,421.16c0,2.54-.65,4.43-1.94,5.67-1.29,1.23-3.29,1.85-5.99,1.85-.95,0-1.89-.08-2.84-.25-.95-.17-1.83-.39-2.63-.67l.77-3.7c.69.28,1.42.49,2.17.65.76.16,1.62.24,2.59.24,1.26,0,2.15-.28,2.68-.83.52-.55.78-1.26.78-2.13v-.56c-.47.22-.96.38-1.46.49s-1.05.16-1.64.16c-2.15,0-3.8-.64-4.94-1.91-1.14-1.27-1.72-3.05-1.72-5.34,0-1.14.18-2.18.53-3.12.35-.94.87-1.74,1.55-2.41.68-.67,1.51-1.19,2.5-1.55.99-.36,2.1-.55,3.34-.55.53,0,1.08.02,1.64.07.56.05,1.12.11,1.67.19.55.08,1.08.17,1.58.28.5.11.95.22,1.35.34v13.08Zm-9.67-6.33c0,2.47,1,3.7,2.99,3.7.45,0,.88-.06,1.27-.18.39-.12.73-.26,1.01-.41v-7.04c-.22-.04-.47-.07-.77-.1s-.64-.04-1.04-.04c-1.17,0-2.03.38-2.6,1.15s-.86,1.75-.86,2.93Z"/>
    </g>
    <rect class="cls-4" x="17.61" y="493.44" width="379" height="67.82" rx="9.62" ry="9.62"/>
    <g>
      <path class="cls-3" d="m72.15,538.83c-.23-.71-.47-1.44-.74-2.2-.26-.75-.52-1.5-.78-2.24h-8.01c-.26.75-.52,1.5-.78,2.25-.26.75-.5,1.48-.73,2.19h-4.79c.77-2.21,1.5-4.25,2.2-6.12.69-1.87,1.37-3.64,2.03-5.3.66-1.66,1.32-3.23,1.96-4.72s1.31-2.94,2-4.36h4.38c.67,1.42,1.34,2.88,1.99,4.36.65,1.49,1.31,3.06,1.98,4.72.66,1.66,1.34,3.42,2.04,5.3.69,1.88,1.43,3.92,2.2,6.12h-4.94Zm-5.55-15.86c-.1.3-.25.7-.45,1.22s-.42,1.1-.68,1.78-.54,1.41-.85,2.22-.63,1.65-.95,2.54h5.86c-.31-.89-.62-1.74-.91-2.55-.29-.81-.57-1.55-.84-2.22s-.5-1.26-.7-1.78-.36-.91-.48-1.21Z"/>
      <path class="cls-3" d="m79.43,523.8c.75-.22,1.72-.42,2.9-.61s2.43-.28,3.73-.28,2.42.17,3.3.52c.88.35,1.57.83,2.09,1.46.51.63.88,1.38,1.09,2.25.22.87.33,1.83.33,2.9v8.79h-4.41v-8.25c0-1.42-.19-2.43-.56-3.02-.38-.59-1.08-.89-2.1-.89-.32,0-.65.01-1.01.04-.36.03-.67.06-.95.1v12.01h-4.41v-15.03Z"/>
      <path class="cls-3" d="m102.44,522.86c1.3,0,2.39.15,3.25.44.87.3,1.56.72,2.09,1.27.52.55.89,1.22,1.11,2.01s.33,1.67.33,2.63v9.17c-.63.14-1.51.3-2.63.49-1.12.19-2.49.28-4.08.28-1.01,0-1.92-.09-2.74-.27-.82-.18-1.52-.47-2.12-.87s-1.05-.93-1.36-1.58c-.32-.65-.47-1.45-.47-2.4s.18-1.68.55-2.31c.36-.63.85-1.13,1.46-1.51.61-.37,1.31-.65,2.1-.81.79-.17,1.61-.25,2.46-.25.57,0,1.08.02,1.52.07.44.05.8.11,1.08.19v-.41c0-.75-.23-1.35-.68-1.8-.45-.45-1.24-.68-2.37-.68-.75,0-1.49.05-2.22.16-.73.11-1.36.26-1.89.46l-.56-3.55c.26-.08.58-.16.96-.25s.8-.17,1.26-.24.93-.13,1.44-.18c.5-.05,1.01-.07,1.52-.07Zm.36,12.9c.43,0,.85,0,1.24-.03s.71-.05.95-.09v-3.34c-.18-.04-.44-.08-.8-.12-.36-.04-.68-.06-.98-.06-.41,0-.8.03-1.17.07-.37.05-.69.14-.96.28-.28.14-.49.33-.65.56-.16.24-.24.53-.24.89,0,.69.23,1.17.7,1.43.46.27,1.1.4,1.91.4Z"/>
      <path class="cls-3" d="m119.43,539.13c-1.28-.02-2.32-.16-3.12-.41s-1.43-.62-1.89-1.08c-.46-.46-.78-1.03-.95-1.69-.17-.66-.25-1.41-.25-2.23v-17.13l4.41-.71v16.95c0,.39.03.75.09,1.06.06.32.17.58.34.8.17.22.41.4.72.53s.74.23,1.27.27l-.62,3.64Z"/>
      <path class="cls-3" d="m136.09,523.27c-.89,3-1.82,5.81-2.79,8.43-.97,2.62-2.03,5.17-3.17,7.63-.42.89-.83,1.64-1.25,2.26s-.87,1.13-1.36,1.54c-.49.4-1.05.7-1.67.89s-1.35.28-2.18.28c-.69,0-1.33-.06-1.91-.19-.58-.13-1.06-.27-1.44-.43l.77-3.52c.45.16.86.27,1.21.33.35.06.73.09,1.12.09.79,0,1.4-.21,1.82-.64s.78-1.01,1.08-1.76c-1.01-1.97-2.01-4.19-3.02-6.64-1.01-2.46-1.95-5.21-2.84-8.27h4.67c.2.77.43,1.6.7,2.5.27.9.55,1.81.85,2.72.3.92.6,1.81.91,2.68.31.87.6,1.66.88,2.37.26-.71.52-1.5.8-2.37s.55-1.76.82-2.68c.27-.92.53-1.82.77-2.72.25-.9.47-1.73.67-2.5h4.56Z"/>
      <path class="cls-3" d="m142.89,535.67c.81,0,1.38-.08,1.72-.24.33-.16.5-.46.5-.92,0-.36-.22-.67-.65-.93-.43-.27-1.09-.57-1.98-.9-.69-.26-1.32-.52-1.88-.8-.56-.28-1.04-.61-1.44-.99s-.7-.84-.92-1.38c-.22-.53-.33-1.17-.33-1.92,0-1.46.54-2.61,1.63-3.46,1.08-.85,2.57-1.27,4.47-1.27.95,0,1.85.08,2.72.25.87.17,1.56.35,2.07.55l-.77,3.43c-.51-.18-1.07-.33-1.67-.47-.6-.14-1.28-.21-2.03-.21-1.38,0-2.07.38-2.07,1.15,0,.18.03.33.09.47.06.14.18.27.36.4.18.13.42.27.72.42.31.15.7.31,1.17.49.97.36,1.77.71,2.4,1.06s1.13.72,1.49,1.13.62.85.77,1.34c.15.49.22,1.06.22,1.71,0,1.54-.58,2.7-1.73,3.48-1.15.79-2.79,1.18-4.9,1.18-1.38,0-2.53-.12-3.45-.35-.92-.24-1.55-.43-1.91-.59l.74-3.58c.75.3,1.52.53,2.31.7.79.17,1.57.25,2.34.25Z"/>
      <path class="cls-3" d="m157.6,518.77c0,.81-.26,1.45-.78,1.91-.52.46-1.14.7-1.85.7s-1.33-.23-1.85-.7c-.52-.46-.78-1.1-.78-1.91s.26-1.44.78-1.91,1.14-.7,1.85-.7,1.33.23,1.85.7c.52.46.78,1.1.78,1.91Zm-.41,20.06h-4.41v-15.56h4.41v15.56Z"/>
      <path class="cls-3" d="m165.79,535.67c.81,0,1.38-.08,1.72-.24.33-.16.5-.46.5-.92,0-.36-.22-.67-.65-.93-.43-.27-1.09-.57-1.98-.9-.69-.26-1.32-.52-1.88-.8-.56-.28-1.04-.61-1.44-.99s-.7-.84-.92-1.38c-.22-.53-.33-1.17-.33-1.92,0-1.46.54-2.61,1.63-3.46,1.08-.85,2.57-1.27,4.47-1.27.95,0,1.85.08,2.72.25.87.17,1.56.35,2.07.55l-.77,3.43c-.51-.18-1.07-.33-1.67-.47-.6-.14-1.28-.21-2.03-.21-1.38,0-2.07.38-2.07,1.15,0,.18.03.33.09.47.06.14.18.27.36.4.18.13.42.27.72.42.31.15.7.31,1.17.49.97.36,1.77.71,2.4,1.06s1.13.72,1.49,1.13.62.85.77,1.34c.15.49.22,1.06.22,1.71,0,1.54-.58,2.7-1.73,3.48-1.15.79-2.79,1.18-4.9,1.18-1.38,0-2.53-.12-3.45-.35-.92-.24-1.55-.43-1.91-.59l.74-3.58c.75.3,1.52.53,2.31.7.79.17,1.57.25,2.34.25Z"/>
      <path class="cls-3" d="m188.37,522.86c1.3,0,2.39.15,3.25.44.87.3,1.56.72,2.09,1.27.52.55.89,1.22,1.11,2.01s.33,1.67.33,2.63v9.17c-.63.14-1.51.3-2.63.49-1.12.19-2.49.28-4.08.28-1.01,0-1.92-.09-2.74-.27-.82-.18-1.52-.47-2.12-.87s-1.05-.93-1.36-1.58c-.32-.65-.47-1.45-.47-2.4s.18-1.68.55-2.31c.36-.63.85-1.13,1.46-1.51.61-.37,1.31-.65,2.1-.81.79-.17,1.61-.25,2.46-.25.57,0,1.08.02,1.52.07.44.05.8.11,1.08.19v-.41c0-.75-.23-1.35-.68-1.8-.45-.45-1.24-.68-2.37-.68-.75,0-1.49.05-2.22.16-.73.11-1.36.26-1.89.46l-.56-3.55c.26-.08.58-.16.96-.25s.8-.17,1.26-.24.93-.13,1.44-.18c.5-.05,1.01-.07,1.52-.07Zm.36,12.9c.43,0,.85,0,1.24-.03s.71-.05.95-.09v-3.34c-.18-.04-.44-.08-.8-.12-.36-.04-.68-.06-.98-.06-.41,0-.8.03-1.17.07-.37.05-.69.14-.96.28-.28.14-.49.33-.65.56-.16.24-.24.53-.24.89,0,.69.23,1.17.7,1.43.46.27,1.1.4,1.91.4Z"/>
      <path class="cls-3" d="m199.14,523.8c.75-.22,1.72-.42,2.9-.61s2.43-.28,3.73-.28,2.42.17,3.3.52c.88.35,1.57.83,2.09,1.46.51.63.88,1.38,1.09,2.25.22.87.33,1.83.33,2.9v8.79h-4.41v-8.25c0-1.42-.19-2.43-.56-3.02-.38-.59-1.08-.89-2.1-.89-.32,0-.65.01-1.01.04-.36.03-.67.06-.95.1v12.01h-4.41v-15.03Z"/>
      <path class="cls-3" d="m230.29,538.33c-.39.12-.85.23-1.36.34-.51.11-1.05.2-1.61.28s-1.13.14-1.72.19c-.58.05-1.14.07-1.67.07-1.28,0-2.43-.19-3.43-.56-1.01-.37-1.85-.91-2.54-1.61s-1.22-1.55-1.58-2.54c-.37-1-.55-2.12-.55-3.36s.16-2.4.47-3.42c.32-1.02.77-1.88,1.36-2.59s1.32-1.25,2.17-1.63c.86-.38,1.84-.56,2.94-.56.61,0,1.16.06,1.64.18s.97.29,1.46.5v-7.04l4.41-.71v22.46Zm-9.97-7.4c0,1.36.31,2.46.92,3.29.61.83,1.52,1.24,2.72,1.24.39,0,.76-.01,1.09-.04.34-.03.61-.06.83-.1v-8.02c-.28-.18-.64-.33-1.08-.44-.44-.12-.89-.18-1.35-.18-2.09,0-3.14,1.42-3.14,4.26Z"/>
      <path class="cls-3" d="m241.83,538.83v-20.5h13.73v3.88h-9.11v4.29h8.11v3.88h-8.11v8.46h-4.62Z"/>
      <path class="cls-3" d="m263.34,518.77c0,.81-.26,1.45-.78,1.91-.52.46-1.14.7-1.85.7s-1.33-.23-1.85-.7c-.52-.46-.78-1.1-.78-1.91s.26-1.44.78-1.91,1.14-.7,1.85-.7,1.33.23,1.85.7c.52.46.78,1.1.78,1.91Zm-.41,20.06h-4.41v-15.56h4.41v15.56Z"/>
      <path class="cls-3" d="m267.07,523.8c.75-.22,1.72-.42,2.9-.61s2.43-.28,3.73-.28,2.42.17,3.3.52c.88.35,1.57.83,2.09,1.46.51.63.88,1.38,1.09,2.25.22.87.33,1.83.33,2.9v8.79h-4.41v-8.25c0-1.42-.19-2.43-.56-3.02-.38-.59-1.08-.89-2.1-.89-.32,0-.65.01-1.01.04-.36.03-.67.06-.95.1v12.01h-4.41v-15.03Z"/>
      <path class="cls-3" d="m298.22,538.33c-.39.12-.85.23-1.36.34-.51.11-1.05.2-1.61.28s-1.13.14-1.72.19c-.58.05-1.14.07-1.67.07-1.28,0-2.43-.19-3.43-.56-1.01-.37-1.85-.91-2.54-1.61s-1.22-1.55-1.58-2.54c-.37-1-.55-2.12-.55-3.36s.16-2.4.47-3.42c.32-1.02.77-1.88,1.36-2.59s1.32-1.25,2.17-1.63c.86-.38,1.84-.56,2.94-.56.61,0,1.16.06,1.64.18s.97.29,1.46.5v-7.04l4.41-.71v22.46Zm-9.97-7.4c0,1.36.31,2.46.92,3.29.61.83,1.52,1.24,2.72,1.24.39,0,.76-.01,1.09-.04.34-.03.61-.06.83-.1v-8.02c-.28-.18-.64-.33-1.08-.44-.44-.12-.89-.18-1.35-.18-2.09,0-3.14,1.42-3.14,4.26Z"/>
      <path class="cls-3" d="m307.19,518.77c0,.81-.26,1.45-.78,1.91-.52.46-1.14.7-1.85.7s-1.33-.23-1.85-.7c-.52-.46-.78-1.1-.78-1.91s.26-1.44.78-1.91,1.14-.7,1.85-.7,1.33.23,1.85.7c.52.46.78,1.1.78,1.91Zm-.41,20.06h-4.41v-15.56h4.41v15.56Z"/>
      <path class="cls-3" d="m310.92,523.8c.75-.22,1.72-.42,2.9-.61s2.43-.28,3.73-.28,2.42.17,3.3.52c.88.35,1.57.83,2.09,1.46.51.63.88,1.38,1.09,2.25.22.87.33,1.83.33,2.9v8.79h-4.41v-8.25c0-1.42-.19-2.43-.56-3.02-.38-.59-1.08-.89-2.1-.89-.32,0-.65.01-1.01.04-.36.03-.67.06-.95.1v12.01h-4.41v-15.03Z"/>
      <path class="cls-3" d="m341.78,536.88c0,2.54-.65,4.43-1.94,5.67-1.29,1.23-3.29,1.85-5.99,1.85-.95,0-1.89-.08-2.84-.25-.95-.17-1.83-.39-2.63-.67l.77-3.7c.69.28,1.42.49,2.17.65.76.16,1.62.24,2.59.24,1.26,0,2.15-.28,2.68-.83.52-.55.78-1.26.78-2.13v-.56c-.47.22-.96.38-1.46.49s-1.05.16-1.64.16c-2.15,0-3.8-.64-4.94-1.91-1.14-1.27-1.72-3.05-1.72-5.34,0-1.14.18-2.18.53-3.12.35-.94.87-1.74,1.55-2.41.68-.67,1.51-1.19,2.5-1.55.99-.36,2.1-.55,3.34-.55.53,0,1.08.02,1.64.07.56.05,1.12.11,1.67.19.55.08,1.08.17,1.58.28.5.11.95.22,1.35.34v13.08Zm-9.67-6.33c0,2.47,1,3.7,2.99,3.7.45,0,.88-.06,1.27-.18.39-.12.73-.26,1.01-.41v-7.04c-.22-.04-.47-.07-.77-.1s-.64-.04-1.04-.04c-1.17,0-2.03.38-2.6,1.15s-.86,1.75-.86,2.93Z"/>
      <path class="cls-3" d="m350.39,535.67c.81,0,1.38-.08,1.72-.24.33-.16.5-.46.5-.92,0-.36-.22-.67-.65-.93-.43-.27-1.09-.57-1.98-.9-.69-.26-1.32-.52-1.88-.8-.56-.28-1.04-.61-1.44-.99s-.7-.84-.92-1.38c-.22-.53-.33-1.17-.33-1.92,0-1.46.54-2.61,1.63-3.46,1.08-.85,2.57-1.27,4.47-1.27.95,0,1.85.08,2.72.25.87.17,1.56.35,2.07.55l-.77,3.43c-.51-.18-1.07-.33-1.67-.47-.6-.14-1.28-.21-2.03-.21-1.38,0-2.07.38-2.07,1.15,0,.18.03.33.09.47.06.14.18.27.36.4.18.13.42.27.72.42.31.15.7.31,1.17.49.97.36,1.77.71,2.4,1.06s1.13.72,1.49,1.13.62.85.77,1.34c.15.49.22,1.06.22,1.71,0,1.54-.58,2.7-1.73,3.48-1.15.79-2.79,1.18-4.9,1.18-1.38,0-2.53-.12-3.45-.35-.92-.24-1.55-.43-1.91-.59l.74-3.58c.75.3,1.52.53,2.31.7.79.17,1.57.25,2.34.25Z"/>
    </g>
    <rect class="cls-4" x="111.9" y="608.44" width="190.42" height="67.82" rx="9.62" ry="9.62"/>
    <g>
      <path class="cls-3" d="m144.84,633.09c3.08,0,5.43.55,7.07,1.64,1.64,1.09,2.46,2.8,2.46,5.1,0,1.44-.33,2.61-.99,3.51-.66.9-1.61,1.6-2.86,2.12.42.51.85,1.1,1.3,1.76.45.66.9,1.35,1.35,2.07.44.72.87,1.47,1.29,2.25s.8,1.54,1.15,2.29h-5.16c-.38-.67-.76-1.35-1.14-2.04-.39-.69-.78-1.36-1.19-2.01-.41-.65-.81-1.27-1.2-1.85-.4-.58-.79-1.11-1.19-1.58h-2.28v7.49h-4.62v-20.21c1.01-.2,2.05-.34,3.12-.42,1.08-.08,2.04-.12,2.88-.12Zm.27,3.94c-.34,0-.64,0-.9.03s-.52.04-.75.06v5.56h1.3c1.74,0,2.98-.22,3.73-.65.75-.43,1.12-1.17,1.12-2.22s-.38-1.72-1.14-2.15c-.76-.42-1.88-.64-3.36-.64Z"/>
      <path class="cls-3" d="m156.79,646.17c0-1.38.21-2.59.64-3.62.42-1.04.98-1.9,1.67-2.59s1.48-1.21,2.38-1.57c.9-.36,1.82-.53,2.77-.53,2.21,0,3.96.68,5.24,2.03,1.28,1.35,1.92,3.34,1.92,5.96,0,.26-.01.54-.03.84s-.04.58-.06.81h-10c.1.91.52,1.63,1.27,2.16.75.53,1.75.8,3.02.8.81,0,1.6-.07,2.38-.22.78-.15,1.42-.33,1.91-.55l.59,3.58c-.24.12-.55.24-.95.36-.4.12-.83.22-1.32.31-.48.09-1,.16-1.55.22-.55.06-1.11.09-1.66.09-1.4,0-2.62-.21-3.65-.62-1.04-.41-1.89-.98-2.57-1.7-.68-.72-1.18-1.57-1.51-2.56-.33-.99-.49-2.05-.49-3.2Zm10.36-1.69c-.02-.38-.08-.74-.19-1.09-.11-.36-.28-.67-.5-.95-.23-.28-.51-.5-.86-.68-.35-.18-.77-.27-1.29-.27s-.92.08-1.27.25c-.35.17-.65.39-.89.67-.24.28-.42.6-.55.96-.13.37-.22.73-.28,1.11h5.83Z"/>
      <path class="cls-3" d="m189.28,646.05c0,1.2-.15,2.3-.44,3.28s-.73,1.83-1.3,2.54-1.28,1.26-2.13,1.66c-.85.39-1.82.59-2.93.59-.61,0-1.18-.06-1.72-.18-.53-.12-1.05-.29-1.54-.5v5.86h-4.41v-20.5c.39-.12.85-.23,1.36-.34.51-.11,1.05-.2,1.61-.28.56-.08,1.13-.14,1.72-.19.58-.05,1.14-.07,1.67-.07,1.28,0,2.43.19,3.43.58,1.01.38,1.85.93,2.54,1.63s1.22,1.55,1.58,2.56.55,2.13.55,3.37Zm-4.5.12c0-1.36-.31-2.45-.92-3.27s-1.52-1.23-2.72-1.23c-.4,0-.76.01-1.09.04-.34.03-.61.06-.83.1v7.96c.28.18.64.33,1.08.44.44.12.89.18,1.35.18,2.09,0,3.14-1.41,3.14-4.23Z"/>
      <path class="cls-3" d="m207.24,646.02c0,1.22-.18,2.34-.53,3.36-.36,1.02-.87,1.88-1.54,2.6-.67.72-1.48,1.28-2.41,1.67s-1.99.59-3.15.59-2.19-.2-3.12-.59-1.74-.95-2.41-1.67c-.67-.72-1.19-1.59-1.57-2.6-.38-1.02-.56-2.13-.56-3.36s.19-2.34.58-3.34.92-1.86,1.6-2.57,1.49-1.26,2.43-1.66c.94-.39,1.96-.59,3.06-.59s2.15.2,3.09.59c.94.39,1.74.95,2.41,1.66.67.71,1.19,1.57,1.57,2.57.37,1.01.56,2.12.56,3.34Zm-4.5,0c0-1.36-.27-2.43-.81-3.21-.54-.78-1.32-1.17-2.32-1.17s-1.79.39-2.34,1.17c-.55.78-.83,1.85-.83,3.21s.28,2.44.83,3.24c.55.8,1.33,1.2,2.34,1.2s1.78-.4,2.32-1.2c.54-.8.81-1.88.81-3.24Z"/>
      <path class="cls-3" d="m220.02,642.17c-.39-.1-.86-.2-1.39-.31-.53-.11-1.1-.16-1.72-.16-.28,0-.61.02-.99.07-.38.05-.68.1-.87.16v11.89h-4.41v-14.73c.79-.28,1.72-.54,2.8-.78s2.27-.37,3.59-.37c.24,0,.52.01.86.04.33.03.67.07,1.01.12.33.05.67.11,1.01.18.33.07.62.15.86.25l-.74,3.64Z"/>
      <path class="cls-3" d="m222.98,634.39l4.41-.71v4.59h5.3v3.67h-5.3v5.47c0,.93.16,1.67.49,2.22.33.55.98.83,1.97.83.47,0,.96-.04,1.46-.13s.96-.21,1.38-.37l.62,3.43c-.53.22-1.12.4-1.78.56-.65.16-1.45.24-2.4.24-1.2,0-2.2-.16-2.99-.49-.79-.33-1.42-.78-1.89-1.36s-.8-1.29-.99-2.12c-.19-.83-.28-1.75-.28-2.75v-13.08Z"/>
      <path class="cls-3" d="m241.09,633.77c0,.81-.26,1.45-.78,1.91-.52.46-1.14.7-1.85.7s-1.33-.23-1.85-.7c-.52-.46-.78-1.1-.78-1.91s.26-1.44.78-1.91,1.14-.7,1.85-.7,1.33.23,1.85.7c.52.46.78,1.1.78,1.91Zm-.41,20.06h-4.41v-15.56h4.41v15.56Z"/>
      <path class="cls-3" d="m244.82,638.8c.75-.22,1.72-.42,2.9-.61s2.43-.28,3.73-.28,2.42.17,3.3.52c.88.35,1.57.83,2.09,1.46.51.63.88,1.38,1.09,2.25.22.87.33,1.83.33,2.9v8.79h-4.41v-8.25c0-1.42-.19-2.43-.56-3.02-.38-.59-1.08-.89-2.1-.89-.32,0-.65.01-1.01.04-.36.03-.67.06-.95.1v12.01h-4.41v-15.03Z"/>
      <path class="cls-3" d="m275.68,651.88c0,2.54-.65,4.43-1.94,5.67-1.29,1.23-3.29,1.85-5.99,1.85-.95,0-1.89-.08-2.84-.25-.95-.17-1.83-.39-2.63-.67l.77-3.7c.69.28,1.42.49,2.17.65.76.16,1.62.24,2.59.24,1.26,0,2.15-.28,2.68-.83.52-.55.78-1.26.78-2.13v-.56c-.47.22-.96.38-1.46.49s-1.05.16-1.64.16c-2.15,0-3.8-.64-4.94-1.91-1.14-1.27-1.72-3.05-1.72-5.34,0-1.14.18-2.18.53-3.12.35-.94.87-1.74,1.55-2.41.68-.67,1.51-1.19,2.5-1.55.99-.36,2.1-.55,3.34-.55.53,0,1.08.02,1.64.07.56.05,1.12.11,1.67.19.55.08,1.08.17,1.58.28.5.11.95.22,1.35.34v13.08Zm-9.67-6.33c0,2.47,1,3.7,2.99,3.7.45,0,.88-.06,1.27-.18.39-.12.73-.26,1.01-.41v-7.04c-.22-.04-.47-.07-.77-.1s-.64-.04-1.04-.04c-1.17,0-2.03.38-2.6,1.15s-.86,1.75-.86,2.93Z"/>
    </g>
    <rect class="cls-4" x="111.9" y="723.4" width="190.42" height="67.82" rx="9.62" ry="9.62"/>
    <g>
      <path class="cls-3" d="m139.61,768.79v-20.5h13.73v3.88h-9.11v4.29h8.11v3.88h-8.11v8.46h-4.62Z"/>
      <path class="cls-3" d="m170.55,760.98c0,1.22-.18,2.34-.53,3.36-.36,1.02-.87,1.88-1.54,2.6-.67.72-1.48,1.28-2.41,1.67s-1.99.59-3.15.59-2.19-.2-3.12-.59-1.74-.95-2.41-1.67c-.67-.72-1.19-1.59-1.57-2.6-.38-1.02-.56-2.13-.56-3.36s.19-2.34.58-3.34.92-1.86,1.6-2.57,1.49-1.26,2.43-1.66c.94-.39,1.96-.59,3.06-.59s2.15.2,3.09.59c.94.39,1.74.95,2.41,1.66.67.71,1.19,1.57,1.57,2.57.37,1.01.56,2.12.56,3.34Zm-4.5,0c0-1.36-.27-2.43-.81-3.21-.54-.78-1.32-1.17-2.32-1.17s-1.79.39-2.34,1.17c-.55.78-.83,1.85-.83,3.21s.28,2.44.83,3.24c.55.8,1.33,1.2,2.34,1.2s1.78-.4,2.32-1.2c.54-.8.81-1.88.81-3.24Z"/>
      <path class="cls-3" d="m180.17,769.09c-1.28-.02-2.32-.16-3.12-.41s-1.43-.62-1.89-1.08c-.46-.46-.78-1.03-.95-1.69-.17-.66-.25-1.41-.25-2.23v-17.13l4.41-.71v16.95c0,.39.03.75.09,1.06.06.32.17.58.34.8.17.22.41.4.72.53s.74.23,1.27.27l-.62,3.64Z"/>
      <path class="cls-3" d="m189.52,769.09c-1.28-.02-2.32-.16-3.12-.41s-1.43-.62-1.89-1.08c-.46-.46-.78-1.03-.95-1.69-.17-.66-.25-1.41-.25-2.23v-17.13l4.41-.71v16.95c0,.39.03.75.09,1.06.06.32.17.58.34.8.17.22.41.4.72.53s.74.23,1.27.27l-.62,3.64Z"/>
      <path class="cls-3" d="m207.21,760.98c0,1.22-.18,2.34-.53,3.36-.36,1.02-.87,1.88-1.54,2.6-.67.72-1.48,1.28-2.41,1.67s-1.99.59-3.15.59-2.19-.2-3.12-.59-1.74-.95-2.41-1.67c-.67-.72-1.19-1.59-1.57-2.6-.38-1.02-.56-2.13-.56-3.36s.19-2.34.58-3.34.92-1.86,1.6-2.57,1.49-1.26,2.43-1.66c.94-.39,1.96-.59,3.06-.59s2.15.2,3.09.59c.94.39,1.74.95,2.41,1.66.67.71,1.19,1.57,1.57,2.57.37,1.01.56,2.12.56,3.34Zm-4.5,0c0-1.36-.27-2.43-.81-3.21-.54-.78-1.32-1.17-2.32-1.17s-1.79.39-2.34,1.17c-.55.78-.83,1.85-.83,3.21s.28,2.44.83,3.24c.55.8,1.33,1.2,2.34,1.2s1.78-.4,2.32-1.2c.54-.8.81-1.88.81-3.24Z"/>
      <path class="cls-3" d="m219.74,759.86c-.39,1.5-.81,2.99-1.26,4.47-.44,1.48-.91,2.97-1.41,4.47h-3.43c-.36-.83-.74-1.81-1.16-2.96-.42-1.14-.85-2.39-1.29-3.74-.45-1.35-.9-2.78-1.37-4.29-.46-1.51-.92-3.03-1.35-4.57h4.65c.16.71.33,1.48.52,2.32.19.84.39,1.7.6,2.59.21.89.43,1.78.65,2.68s.46,1.76.7,2.59c.26-.87.51-1.76.75-2.66s.48-1.8.71-2.68c.23-.88.44-1.73.65-2.54.21-.82.39-1.58.55-2.29h3.2c.16.71.33,1.47.53,2.29.2.82.4,1.67.62,2.54.22.88.44,1.77.68,2.68s.48,1.79.74,2.66c.24-.83.48-1.69.71-2.59s.46-1.79.67-2.68c.21-.89.41-1.75.59-2.59.19-.84.36-1.61.52-2.32h4.59c-.44,1.54-.89,3.06-1.35,4.57-.46,1.51-.92,2.94-1.36,4.29-.45,1.35-.88,2.6-1.31,3.74-.43,1.14-.82,2.13-1.17,2.96h-3.43c-.49-1.5-.98-2.99-1.45-4.47-.47-1.48-.91-2.97-1.3-4.47Z"/>
      <path class="cls-3" d="m232.36,757.96h8.58v3.99h-8.58v-3.99Z"/>
      <path class="cls-3" d="m257.04,768.26c-.75.22-1.72.42-2.9.61-1.18.19-2.43.28-3.73.28s-2.42-.18-3.3-.53c-.88-.35-1.57-.85-2.09-1.49-.51-.64-.88-1.41-1.09-2.29-.22-.89-.33-1.86-.33-2.93v-8.67h4.41v8.14c0,1.42.19,2.45.56,3.08.38.63,1.08.95,2.1.95.31,0,.65-.01,1.01-.04.35-.03.67-.06.95-.1v-12.01h4.41v15.03Z"/>
      <path class="cls-3" d="m275.65,761.01c0,1.2-.15,2.3-.44,3.28s-.73,1.83-1.3,2.54-1.28,1.26-2.13,1.66c-.85.39-1.82.59-2.93.59-.61,0-1.18-.06-1.72-.18-.53-.12-1.05-.29-1.54-.5v5.86h-4.41v-20.5c.39-.12.85-.23,1.36-.34.51-.11,1.05-.2,1.61-.28.56-.08,1.13-.14,1.72-.19.58-.05,1.14-.07,1.67-.07,1.28,0,2.43.19,3.43.58,1.01.38,1.85.93,2.54,1.63s1.22,1.55,1.58,2.56.55,2.13.55,3.37Zm-4.5.12c0-1.36-.31-2.45-.92-3.27s-1.52-1.23-2.72-1.23c-.4,0-.76.01-1.09.04-.34.03-.61.06-.83.1v7.96c.28.18.64.33,1.08.44.44.12.89.18,1.35.18,2.09,0,3.14-1.41,3.14-4.23Z"/>
    </g>
  </g>
  <g id="Artwork_35" data-name="Artwork 35">
    <g>
      <path id="cloud" class="cls-2" d="m133.83,20.03c-.31-1.63-1.77-2.87-3.51-2.87h-.63c-.47-2.34-2.52-4.04-4.93-4.04s-4.47,1.72-4.93,4.06c-1.79.19-3.19,1.7-3.19,3.52,0,1.95,1.6,3.54,3.57,3.54h5.29c.28,0,.5-.24.48-.52,0-.26-.22-.48-.48-.48h-5.29c-1.41,0-2.56-1.13-2.56-2.53s1.15-2.53,2.56-2.53c.52,0,1.03.16,1.46.46.2.15.48.13.65-.05h0c.2-.19.2-.51,0-.71h0s-.04-.04-.06-.06c-.42-.3-.9-.5-1.41-.6.43-1.79,2.03-3.09,3.91-3.09,1.99,0,3.66,1.45,3.97,3.41-.16.08-.31.17-.46.28-.23.16-.28.48-.12.71.02.02.03.05.06.07h0c.17.17.45.19.65.05.43-.3.94-.47,1.46-.46,1.25,0,2.29.88,2.51,2.05.05.24.25.41.5.41h0c.28,0,.5-.22.51-.5h0s0-.07,0-.1Z"/>
      <g id="numbers">
        <path class="cls-2" d="m127.53,23.41h-.44v-1.39s0-.21,0-.21c-.05.05-.1.1-.15.14l-.24.19-.21-.26.66-.53h.36v2.05Z"/>
        <path class="cls-2" d="m129.53,22.38c0,.36-.06.63-.18.8s-.3.26-.54.26-.42-.09-.54-.27-.18-.44-.18-.79.06-.63.17-.8.3-.26.54-.26.42.09.54.27c.13.18.19.45.19.79Zm-1.01,0c0,.25.02.43.07.54s.12.16.22.16.17-.06.22-.16.07-.29.07-.54-.02-.44-.07-.54-.12-.16-.22-.16-.17.06-.22.16-.07.29-.07.54Z"/>
        <path class="cls-2" d="m127.53,26.53h-.44v-1.39s0-.21,0-.21c-.05.05-.1.1-.15.14l-.24.19-.21-.26.66-.53h.36v2.05Z"/>
        <path class="cls-2" d="m129.18,26.53h-.44v-1.39s0-.21,0-.21c-.05.05-.1.1-.15.14l-.24.19-.21-.26.66-.53h.36v2.05h0Z"/>
        <path class="cls-2" d="m130.83,26.53h-.44v-1.39s0-.21,0-.21c-.05.05-.1.1-.15.14l-.24.19-.21-.26.66-.53h.36v2.05Z"/>
        <path class="cls-2" d="m132.82,25.5c0,.36-.06.63-.18.8s-.3.26-.54.26-.42-.09-.54-.27-.18-.44-.18-.79.06-.63.17-.8.3-.26.54-.26.42.09.54.27c.13.18.19.44.19.79Zm-1.01,0c0,.25.02.43.07.54s.12.16.22.16.17-.06.22-.16.07-.29.07-.54-.02-.44-.07-.54-.12-.16-.22-.16-.17.06-.22.16-.07.29-.07.54Z"/>
        <path class="cls-2" d="m133.76,27.97c0,.26-.04.46-.13.58s-.22.19-.4.19-.3-.07-.39-.19-.13-.32-.13-.57.04-.46.13-.58c.09-.13.22-.19.4-.19s.3.07.39.2.13.32.13.57Zm-.73,0c0,.18.02.32.05.4.02.07.09.12.16.12s.13-.04.16-.12.05-.21.05-.39-.02-.32-.05-.4-.09-.12-.16-.12-.13.04-.16.12-.05.21-.05.4h0Z"/>
        <path class="cls-2" d="m134.7,28.72h-.32v-1.01s0-.16,0-.16c-.05.05-.09.09-.11.1l-.17.14-.15-.19.48-.38h.26v1.5h0Z"/>
        <path class="cls-2" d="m127.44,27.99c0,.26-.04.45-.13.57s-.21.18-.39.18-.3-.06-.38-.19-.13-.31-.13-.56.04-.45.13-.57.21-.18.39-.18.3.06.38.19.13.32.13.56Zm-.72,0c0,.18.02.31.05.39.02.07.09.12.16.12.07,0,.13-.04.16-.12s.05-.21.05-.39-.02-.31-.05-.39-.08-.12-.16-.12-.13.04-.16.12-.05.21-.05.39h0Z"/>
        <path class="cls-2" d="m128.36,28.72h-.31v-.99s0-.15,0-.15c-.05.05-.09.09-.11.1l-.17.14-.15-.19.47-.38h.25v1.46Z"/>
        <path class="cls-2" d="m129.78,27.99c0,.26-.04.45-.13.57s-.21.18-.39.18-.3-.06-.38-.19-.13-.31-.13-.56.04-.45.13-.57.21-.18.39-.18.3.06.38.19.13.32.13.56Zm-.72,0c0,.18.02.31.05.39.02.07.09.12.16.12.08,0,.13-.04.16-.12s.05-.21.05-.39-.02-.31-.05-.39-.09-.12-.16-.12-.13.04-.16.12-.05.21-.05.39h0Z"/>
        <path class="cls-2" d="m130.7,28.72h-.31v-.99s0-.15,0-.15c-.05.05-.09.09-.11.1l-.17.14-.15-.19.47-.38h.25v1.46Z"/>
        <path class="cls-2" d="m127.13,29.86c0,.18-.03.32-.09.41s-.15.13-.28.13c-.11,0-.21-.05-.27-.14-.06-.09-.09-.23-.09-.41,0-.19.03-.32.09-.41s.15-.13.28-.13c.11,0,.21.05.28.14.06.1.09.23.09.41Zm-.52,0c0,.13,0,.22.03.28.02.06.08.1.14.08h0s.07-.04.08-.08c.02-.06.03-.15.03-.28,0-.1,0-.19-.04-.28-.02-.06-.08-.1-.14-.08h0s-.07.04-.08.08c-.02.1-.03.19-.03.28Z"/>
        <path class="cls-2" d="m127.79,30.38h-.22v-.71s0-.11,0-.11c-.04.04-.06.06-.08.07l-.12.1-.11-.13.34-.27h.18v1.05Z"/>
        <path class="cls-2" d="m130.06,31.17c0,.18-.03.32-.09.41s-.16.13-.28.13c-.11,0-.21-.05-.27-.14-.06-.09-.09-.23-.09-.41s.03-.32.09-.41.15-.13.28-.13c.11,0,.21.05.28.14.07.1.1.23.1.41Zm-.51,0c0,.13,0,.22.03.28.02.06.08.1.14.08h0s.07-.04.08-.08c.02-.06.03-.15.03-.28,0-.1,0-.19-.04-.28-.01-.05-.06-.09-.11-.09s-.1.03-.11.09c-.02.05-.03.15-.03.28Z"/>
        <path class="cls-2" d="m130.73,31.7h-.22v-.71s0-.11,0-.11c-.04.04-.06.06-.08.07l-.12.1-.11-.14.34-.27h.18v1.05Z"/>
        <path class="cls-2" d="m132.48,29.65c0,.26-.04.45-.13.57s-.21.18-.39.18-.3-.06-.38-.19-.13-.31-.13-.56.04-.45.13-.57.21-.18.39-.18.3.06.38.19.13.32.13.56Zm-.72,0c0,.18.02.31.05.39.02.07.09.12.16.12.07,0,.13-.04.16-.12s.05-.21.05-.39-.02-.31-.05-.39-.09-.12-.16-.12-.13.04-.16.12-.05.21-.05.39h0Z"/>
        <path class="cls-2" d="m133.4,30.38h-.31v-.99s0-.15,0-.15c-.05.05-.09.09-.11.1l-.17.14-.15-.19.47-.38h.25v1.46h0Z"/>
        <path class="cls-2" d="m134.82,29.65c0,.26-.04.45-.13.57s-.21.18-.39.18-.3-.06-.38-.19-.13-.31-.13-.56.04-.45.13-.57.21-.18.39-.18.3.06.38.19.13.32.13.56Zm-.72,0c0,.18.02.31.05.39.02.07.09.12.16.12.07,0,.13-.04.16-.12s.05-.21.05-.39-.02-.31-.05-.39-.09-.12-.16-.12-.13.04-.16.12-.05.21-.05.39h0Z"/>
        <path class="cls-2" d="m132.57,23.41h-.44v-1.39s0-.21,0-.21c-.05.05-.1.1-.15.14l-.24.19-.21-.26.66-.53h.36v2.05h0Z"/>
        <path class="cls-2" d="m134.57,22.38c0,.36-.06.63-.18.8s-.3.26-.54.26-.42-.09-.54-.27-.18-.44-.18-.79.06-.63.17-.8.3-.26.54-.26.42.09.54.27.18.45.19.79Zm-1.01,0c0,.25.02.43.07.54s.12.16.22.16.17-.06.22-.16.07-.29.07-.54-.02-.44-.07-.54-.12-.16-.22-.16-.17.06-.22.16-.07.29-.07.54h0Z"/>
      </g>
    </g>
  </g>
</svg>